G04 EAGLE Gerber RS-274X export*
G75*
%MOMM*%
%FSLAX34Y34*%
%LPD*%
%INCopper Layer 15*%
%IPPOS*%
%AMOC8*
5,1,8,0,0,1.08239X$1,22.5*%
G01*
%ADD10C,1.288000*%
%ADD11C,3.220000*%
%ADD12C,1.400000*%
%ADD13C,4.016000*%
%ADD14C,1.244600*%
%ADD15C,1.960000*%
%ADD16C,4.191000*%
%ADD17C,0.609600*%

G36*
X1012308Y2556D02*
X1012308Y2556D01*
X1012427Y2563D01*
X1012465Y2576D01*
X1012506Y2581D01*
X1012616Y2624D01*
X1012729Y2661D01*
X1012764Y2683D01*
X1012801Y2698D01*
X1012897Y2767D01*
X1012998Y2831D01*
X1013026Y2861D01*
X1013059Y2884D01*
X1013135Y2976D01*
X1013216Y3063D01*
X1013236Y3098D01*
X1013261Y3129D01*
X1013312Y3237D01*
X1013370Y3341D01*
X1013380Y3381D01*
X1013397Y3417D01*
X1013419Y3534D01*
X1013449Y3649D01*
X1013453Y3709D01*
X1013457Y3729D01*
X1013455Y3750D01*
X1013459Y3810D01*
X1013459Y1266190D01*
X1013444Y1266308D01*
X1013437Y1266427D01*
X1013424Y1266465D01*
X1013419Y1266506D01*
X1013376Y1266616D01*
X1013339Y1266729D01*
X1013317Y1266764D01*
X1013302Y1266801D01*
X1013233Y1266897D01*
X1013169Y1266998D01*
X1013139Y1267026D01*
X1013116Y1267059D01*
X1013024Y1267135D01*
X1012937Y1267216D01*
X1012902Y1267236D01*
X1012871Y1267261D01*
X1012763Y1267312D01*
X1012659Y1267370D01*
X1012619Y1267380D01*
X1012583Y1267397D01*
X1012466Y1267419D01*
X1012351Y1267449D01*
X1012291Y1267453D01*
X1012271Y1267457D01*
X1012250Y1267455D01*
X1012190Y1267459D01*
X3810Y1267459D01*
X3692Y1267444D01*
X3573Y1267437D01*
X3535Y1267424D01*
X3494Y1267419D01*
X3384Y1267376D01*
X3271Y1267339D01*
X3236Y1267317D01*
X3199Y1267302D01*
X3103Y1267233D01*
X3002Y1267169D01*
X2974Y1267139D01*
X2941Y1267116D01*
X2865Y1267024D01*
X2784Y1266937D01*
X2764Y1266902D01*
X2739Y1266871D01*
X2688Y1266763D01*
X2630Y1266659D01*
X2620Y1266619D01*
X2603Y1266583D01*
X2581Y1266466D01*
X2551Y1266351D01*
X2547Y1266291D01*
X2543Y1266271D01*
X2545Y1266250D01*
X2541Y1266190D01*
X2541Y3810D01*
X2556Y3692D01*
X2563Y3573D01*
X2576Y3535D01*
X2581Y3494D01*
X2624Y3384D01*
X2661Y3271D01*
X2683Y3236D01*
X2698Y3199D01*
X2767Y3103D01*
X2831Y3002D01*
X2861Y2974D01*
X2884Y2941D01*
X2976Y2865D01*
X3063Y2784D01*
X3098Y2764D01*
X3129Y2739D01*
X3237Y2688D01*
X3341Y2630D01*
X3381Y2620D01*
X3417Y2603D01*
X3534Y2581D01*
X3649Y2551D01*
X3709Y2547D01*
X3729Y2543D01*
X3750Y2545D01*
X3810Y2541D01*
X1012190Y2541D01*
X1012308Y2556D01*
G37*
%LPC*%
G36*
X973226Y1208404D02*
X973226Y1208404D01*
X964591Y1211981D01*
X957981Y1218591D01*
X954404Y1227226D01*
X954404Y1236574D01*
X957981Y1245209D01*
X964591Y1251819D01*
X973226Y1255396D01*
X982574Y1255396D01*
X991209Y1251819D01*
X997819Y1245209D01*
X1001396Y1236574D01*
X1001396Y1227226D01*
X997819Y1218591D01*
X991209Y1211981D01*
X982574Y1208404D01*
X973226Y1208404D01*
G37*
%LPD*%
%LPC*%
G36*
X33426Y1208404D02*
X33426Y1208404D01*
X24791Y1211981D01*
X18181Y1218591D01*
X14604Y1227226D01*
X14604Y1236574D01*
X18181Y1245209D01*
X24791Y1251819D01*
X33426Y1255396D01*
X42774Y1255396D01*
X51409Y1251819D01*
X58019Y1245209D01*
X61596Y1236574D01*
X61596Y1227226D01*
X58019Y1218591D01*
X51409Y1211981D01*
X42774Y1208404D01*
X33426Y1208404D01*
G37*
%LPD*%
%LPC*%
G36*
X33426Y14604D02*
X33426Y14604D01*
X24791Y18181D01*
X18181Y24791D01*
X14604Y33426D01*
X14604Y42774D01*
X18181Y51409D01*
X24791Y58019D01*
X33426Y61596D01*
X42774Y61596D01*
X51409Y58019D01*
X58019Y51409D01*
X61596Y42774D01*
X61596Y33426D01*
X58019Y24791D01*
X51409Y18181D01*
X42774Y14604D01*
X33426Y14604D01*
G37*
%LPD*%
%LPC*%
G36*
X973226Y14604D02*
X973226Y14604D01*
X964591Y18181D01*
X957981Y24791D01*
X954404Y33426D01*
X954404Y42774D01*
X957981Y51409D01*
X964591Y58019D01*
X973226Y61596D01*
X982574Y61596D01*
X991209Y58019D01*
X997819Y51409D01*
X1001396Y42774D01*
X1001396Y33426D01*
X997819Y24791D01*
X991209Y18181D01*
X982574Y14604D01*
X973226Y14604D01*
G37*
%LPD*%
%LPC*%
G36*
X674950Y1158479D02*
X674950Y1158479D01*
X666636Y1161923D01*
X660273Y1168286D01*
X656829Y1176600D01*
X656829Y1185600D01*
X660273Y1193914D01*
X666636Y1200277D01*
X674950Y1203721D01*
X683950Y1203721D01*
X692264Y1200277D01*
X698627Y1193914D01*
X702071Y1185600D01*
X702071Y1176600D01*
X698627Y1168286D01*
X692264Y1161923D01*
X683950Y1158479D01*
X674950Y1158479D01*
G37*
%LPD*%
%LPC*%
G36*
X103450Y1158479D02*
X103450Y1158479D01*
X95136Y1161923D01*
X88773Y1168286D01*
X85329Y1176600D01*
X85329Y1185600D01*
X88773Y1193914D01*
X95136Y1200277D01*
X103450Y1203721D01*
X112450Y1203721D01*
X120764Y1200277D01*
X127127Y1193914D01*
X130571Y1185600D01*
X130571Y1176600D01*
X127127Y1168286D01*
X120764Y1161923D01*
X112450Y1158479D01*
X103450Y1158479D01*
G37*
%LPD*%
%LPC*%
G36*
X103450Y396479D02*
X103450Y396479D01*
X95136Y399923D01*
X88773Y406286D01*
X85329Y414600D01*
X85329Y423600D01*
X88773Y431914D01*
X95136Y438277D01*
X103450Y441721D01*
X112450Y441721D01*
X120764Y438277D01*
X127127Y431914D01*
X130571Y423600D01*
X130571Y414600D01*
X127127Y406286D01*
X120764Y399923D01*
X112450Y396479D01*
X103450Y396479D01*
G37*
%LPD*%
%LPC*%
G36*
X674950Y396479D02*
X674950Y396479D01*
X666636Y399923D01*
X660273Y406286D01*
X656829Y414600D01*
X656829Y423600D01*
X660273Y431914D01*
X666636Y438277D01*
X674950Y441721D01*
X683950Y441721D01*
X692264Y438277D01*
X698627Y431914D01*
X702071Y423600D01*
X702071Y414600D01*
X698627Y406286D01*
X692264Y399923D01*
X683950Y396479D01*
X674950Y396479D01*
G37*
%LPD*%
%LPC*%
G36*
X899692Y464859D02*
X899692Y464859D01*
X892841Y467697D01*
X887597Y472941D01*
X884759Y479792D01*
X884759Y487208D01*
X887597Y494059D01*
X892841Y499303D01*
X899692Y502141D01*
X907108Y502141D01*
X913959Y499303D01*
X919203Y494059D01*
X922041Y487208D01*
X922041Y479792D01*
X919203Y472941D01*
X913959Y467697D01*
X907108Y464859D01*
X899692Y464859D01*
G37*
%LPD*%
%LPC*%
G36*
X899692Y596259D02*
X899692Y596259D01*
X892841Y599097D01*
X887597Y604341D01*
X884759Y611192D01*
X884759Y618608D01*
X887597Y625459D01*
X892841Y630703D01*
X899692Y633541D01*
X907108Y633541D01*
X913959Y630703D01*
X919203Y625459D01*
X922041Y618608D01*
X922041Y611192D01*
X919203Y604341D01*
X913959Y599097D01*
X907108Y596259D01*
X899692Y596259D01*
G37*
%LPD*%
%LPC*%
G36*
X763428Y799839D02*
X763428Y799839D01*
X761374Y800690D01*
X759851Y802214D01*
X759827Y802232D01*
X759808Y802254D01*
X759702Y802329D01*
X759599Y802409D01*
X759572Y802420D01*
X759548Y802437D01*
X759427Y802483D01*
X759307Y802535D01*
X759278Y802540D01*
X759251Y802550D01*
X759122Y802565D01*
X758993Y802585D01*
X758964Y802582D01*
X758935Y802585D01*
X758806Y802567D01*
X758677Y802555D01*
X758649Y802545D01*
X758620Y802541D01*
X758467Y802489D01*
X755443Y801236D01*
X751957Y801236D01*
X748736Y802570D01*
X746270Y805036D01*
X745694Y806428D01*
X745669Y806471D01*
X745652Y806518D01*
X745591Y806609D01*
X745536Y806704D01*
X745502Y806740D01*
X745474Y806781D01*
X745391Y806854D01*
X745315Y806933D01*
X745273Y806959D01*
X745235Y806992D01*
X745137Y807042D01*
X745044Y807099D01*
X744996Y807114D01*
X744952Y807136D01*
X744845Y807160D01*
X744740Y807193D01*
X744690Y807195D01*
X744642Y807206D01*
X744532Y807203D01*
X744422Y807208D01*
X744374Y807198D01*
X744324Y807196D01*
X744218Y807166D01*
X744111Y807144D01*
X744066Y807122D01*
X744018Y807108D01*
X743924Y807052D01*
X743825Y807004D01*
X743787Y806972D01*
X743744Y806946D01*
X743624Y806840D01*
X742306Y805522D01*
X740252Y804671D01*
X738028Y804671D01*
X736929Y805127D01*
X736900Y805135D01*
X736874Y805148D01*
X736747Y805176D01*
X736622Y805211D01*
X736592Y805211D01*
X736564Y805218D01*
X736434Y805214D01*
X736304Y805216D01*
X736275Y805209D01*
X736246Y805208D01*
X736121Y805172D01*
X735995Y805142D01*
X735968Y805128D01*
X735940Y805120D01*
X735828Y805054D01*
X735714Y804993D01*
X735692Y804973D01*
X735666Y804958D01*
X735545Y804852D01*
X733264Y802570D01*
X730043Y801236D01*
X726557Y801236D01*
X723336Y802570D01*
X720870Y805036D01*
X719536Y808257D01*
X719536Y811743D01*
X720870Y814964D01*
X723336Y817430D01*
X726557Y818764D01*
X730043Y818764D01*
X733264Y817430D01*
X735178Y815516D01*
X735201Y815498D01*
X735220Y815475D01*
X735326Y815401D01*
X735429Y815321D01*
X735456Y815309D01*
X735480Y815292D01*
X735602Y815246D01*
X735721Y815195D01*
X735750Y815190D01*
X735778Y815180D01*
X735907Y815165D01*
X736035Y815145D01*
X736064Y815148D01*
X736094Y815144D01*
X736222Y815163D01*
X736352Y815175D01*
X736379Y815185D01*
X736409Y815189D01*
X736561Y815241D01*
X738028Y815849D01*
X740252Y815849D01*
X742306Y814998D01*
X743776Y813528D01*
X743815Y813497D01*
X743849Y813461D01*
X743940Y813400D01*
X744027Y813333D01*
X744073Y813313D01*
X744114Y813286D01*
X744218Y813250D01*
X744319Y813206D01*
X744368Y813199D01*
X744415Y813183D01*
X744524Y813174D01*
X744633Y813157D01*
X744683Y813161D01*
X744732Y813157D01*
X744840Y813176D01*
X744950Y813186D01*
X744997Y813203D01*
X745045Y813212D01*
X745146Y813257D01*
X745249Y813294D01*
X745290Y813322D01*
X745335Y813342D01*
X745421Y813411D01*
X745512Y813473D01*
X745545Y813510D01*
X745584Y813541D01*
X745650Y813629D01*
X745723Y813711D01*
X745745Y813755D01*
X745775Y813795D01*
X745846Y813940D01*
X746270Y814964D01*
X748736Y817430D01*
X751957Y818764D01*
X755443Y818764D01*
X758664Y817430D01*
X761130Y814964D01*
X762440Y811800D01*
X762447Y811788D01*
X762449Y811783D01*
X762455Y811772D01*
X762464Y811747D01*
X762533Y811637D01*
X762598Y811524D01*
X762618Y811503D01*
X762634Y811478D01*
X762728Y811389D01*
X762819Y811296D01*
X762844Y811280D01*
X762866Y811260D01*
X762979Y811197D01*
X763090Y811129D01*
X763118Y811121D01*
X763144Y811106D01*
X763270Y811074D01*
X763394Y811036D01*
X763423Y811034D01*
X763452Y811027D01*
X763613Y811017D01*
X765652Y811017D01*
X767706Y810166D01*
X768169Y809702D01*
X768279Y809617D01*
X768386Y809528D01*
X768405Y809520D01*
X768421Y809507D01*
X768549Y809452D01*
X768674Y809393D01*
X768694Y809389D01*
X768713Y809381D01*
X768851Y809359D01*
X768987Y809333D01*
X769007Y809334D01*
X769027Y809331D01*
X769166Y809344D01*
X769304Y809353D01*
X769323Y809359D01*
X769343Y809361D01*
X769474Y809408D01*
X769606Y809451D01*
X769624Y809462D01*
X769643Y809468D01*
X769757Y809546D01*
X769875Y809621D01*
X769889Y809636D01*
X769906Y809647D01*
X769998Y809751D01*
X770093Y809852D01*
X770103Y809870D01*
X770116Y809885D01*
X770179Y810009D01*
X770247Y810131D01*
X770252Y810151D01*
X770261Y810169D01*
X770291Y810305D01*
X770326Y810439D01*
X770328Y810467D01*
X770331Y810479D01*
X770330Y810499D01*
X770336Y810600D01*
X770336Y811743D01*
X771670Y814964D01*
X774136Y817430D01*
X777357Y818764D01*
X780843Y818764D01*
X784064Y817430D01*
X786530Y814964D01*
X787864Y811743D01*
X787864Y808257D01*
X786530Y805036D01*
X784064Y802570D01*
X780843Y801236D01*
X777357Y801236D01*
X774136Y802570D01*
X772134Y804572D01*
X772095Y804603D01*
X772062Y804639D01*
X771970Y804700D01*
X771883Y804767D01*
X771837Y804787D01*
X771796Y804814D01*
X771692Y804850D01*
X771591Y804893D01*
X771542Y804901D01*
X771495Y804917D01*
X771386Y804926D01*
X771277Y804943D01*
X771227Y804938D01*
X771178Y804942D01*
X771070Y804924D01*
X770960Y804913D01*
X770914Y804897D01*
X770865Y804888D01*
X770765Y804843D01*
X770661Y804806D01*
X770620Y804778D01*
X770575Y804757D01*
X770489Y804689D01*
X770398Y804627D01*
X770365Y804590D01*
X770326Y804559D01*
X770260Y804471D01*
X770187Y804389D01*
X770165Y804344D01*
X770135Y804305D01*
X770064Y804160D01*
X769278Y802262D01*
X767706Y800690D01*
X765652Y799839D01*
X763428Y799839D01*
G37*
%LPD*%
%LPC*%
G36*
X328008Y181959D02*
X328008Y181959D01*
X322480Y184249D01*
X318249Y188480D01*
X315959Y194008D01*
X315959Y199992D01*
X318249Y205520D01*
X322480Y209751D01*
X328008Y212041D01*
X333992Y212041D01*
X339520Y209751D01*
X343751Y205520D01*
X346041Y199992D01*
X346041Y194008D01*
X343751Y188480D01*
X339520Y184249D01*
X333992Y181959D01*
X328008Y181959D01*
G37*
%LPD*%
%LPC*%
G36*
X428008Y181959D02*
X428008Y181959D01*
X422480Y184249D01*
X418249Y188480D01*
X415959Y194008D01*
X415959Y199992D01*
X418249Y205520D01*
X422480Y209751D01*
X428008Y212041D01*
X433992Y212041D01*
X439520Y209751D01*
X443751Y205520D01*
X446041Y199992D01*
X446041Y194008D01*
X443751Y188480D01*
X439520Y184249D01*
X433992Y181959D01*
X428008Y181959D01*
G37*
%LPD*%
%LPC*%
G36*
X518508Y181959D02*
X518508Y181959D01*
X512980Y184249D01*
X508749Y188480D01*
X506459Y194008D01*
X506459Y199992D01*
X508749Y205520D01*
X512980Y209751D01*
X518508Y212041D01*
X524492Y212041D01*
X530020Y209751D01*
X534251Y205520D01*
X536541Y199992D01*
X536541Y194008D01*
X534251Y188480D01*
X530020Y184249D01*
X524492Y181959D01*
X518508Y181959D01*
G37*
%LPD*%
%LPC*%
G36*
X618508Y181959D02*
X618508Y181959D01*
X612980Y184249D01*
X608749Y188480D01*
X606459Y194008D01*
X606459Y199992D01*
X608749Y205520D01*
X612980Y209751D01*
X618508Y212041D01*
X624492Y212041D01*
X630020Y209751D01*
X634251Y205520D01*
X636541Y199992D01*
X636541Y194008D01*
X634251Y188480D01*
X630020Y184249D01*
X624492Y181959D01*
X618508Y181959D01*
G37*
%LPD*%
%LPC*%
G36*
X675757Y801236D02*
X675757Y801236D01*
X672536Y802570D01*
X670070Y805036D01*
X668736Y808257D01*
X668736Y811743D01*
X670070Y814964D01*
X672536Y817430D01*
X675757Y818764D01*
X679243Y818764D01*
X682464Y817430D01*
X684930Y814964D01*
X685752Y812978D01*
X685777Y812935D01*
X685794Y812888D01*
X685856Y812797D01*
X685910Y812702D01*
X685945Y812666D01*
X685973Y812625D01*
X686055Y812552D01*
X686131Y812473D01*
X686174Y812447D01*
X686211Y812414D01*
X686309Y812364D01*
X686402Y812307D01*
X686450Y812292D01*
X686494Y812270D01*
X686601Y812246D01*
X686706Y812213D01*
X686756Y812211D01*
X686805Y812200D01*
X686914Y812203D01*
X687024Y812198D01*
X687073Y812208D01*
X687122Y812210D01*
X687228Y812240D01*
X687335Y812262D01*
X687380Y812284D01*
X687428Y812298D01*
X687522Y812354D01*
X687621Y812402D01*
X687659Y812435D01*
X687662Y812436D01*
X689768Y813309D01*
X691992Y813309D01*
X693203Y812807D01*
X693318Y812776D01*
X693431Y812737D01*
X693471Y812734D01*
X693510Y812723D01*
X693629Y812721D01*
X693748Y812712D01*
X693787Y812719D01*
X693828Y812718D01*
X693944Y812746D01*
X694061Y812766D01*
X694098Y812783D01*
X694137Y812792D01*
X694242Y812848D01*
X694351Y812897D01*
X694382Y812922D01*
X694418Y812941D01*
X694506Y813021D01*
X694599Y813095D01*
X694624Y813127D01*
X694654Y813155D01*
X694719Y813254D01*
X694791Y813349D01*
X694817Y813403D01*
X694828Y813420D01*
X694835Y813440D01*
X694861Y813494D01*
X695470Y814964D01*
X697936Y817430D01*
X701157Y818764D01*
X704643Y818764D01*
X707864Y817430D01*
X710330Y814964D01*
X711664Y811743D01*
X711664Y808257D01*
X710330Y805036D01*
X707864Y802570D01*
X704643Y801236D01*
X701157Y801236D01*
X697936Y802570D01*
X696682Y803824D01*
X696588Y803897D01*
X696499Y803976D01*
X696463Y803994D01*
X696431Y804019D01*
X696322Y804066D01*
X696216Y804120D01*
X696176Y804129D01*
X696139Y804145D01*
X696022Y804164D01*
X695906Y804190D01*
X695865Y804189D01*
X695825Y804195D01*
X695707Y804184D01*
X695588Y804180D01*
X695549Y804169D01*
X695509Y804165D01*
X695396Y804125D01*
X695282Y804092D01*
X695247Y804071D01*
X695209Y804058D01*
X695111Y803991D01*
X695008Y803930D01*
X694963Y803890D01*
X694946Y803879D01*
X694933Y803864D01*
X694887Y803824D01*
X694046Y802982D01*
X691992Y802131D01*
X689768Y802131D01*
X687714Y802982D01*
X686193Y804504D01*
X686098Y804577D01*
X686009Y804656D01*
X685973Y804674D01*
X685941Y804699D01*
X685832Y804746D01*
X685726Y804800D01*
X685687Y804809D01*
X685649Y804825D01*
X685532Y804844D01*
X685416Y804870D01*
X685375Y804869D01*
X685335Y804875D01*
X685217Y804864D01*
X685098Y804860D01*
X685059Y804849D01*
X685019Y804845D01*
X684907Y804805D01*
X684792Y804772D01*
X684758Y804751D01*
X684719Y804738D01*
X684621Y804671D01*
X684518Y804610D01*
X684473Y804570D01*
X684456Y804559D01*
X684443Y804544D01*
X684398Y804504D01*
X682464Y802570D01*
X679243Y801236D01*
X675757Y801236D01*
G37*
%LPD*%
%LPC*%
G36*
X726557Y826636D02*
X726557Y826636D01*
X723336Y827970D01*
X720870Y830436D01*
X719536Y833657D01*
X719536Y837143D01*
X720870Y840364D01*
X723336Y842830D01*
X726557Y844164D01*
X730043Y844164D01*
X733264Y842830D01*
X735730Y840364D01*
X736552Y838378D01*
X736577Y838335D01*
X736594Y838288D01*
X736656Y838197D01*
X736710Y838102D01*
X736745Y838066D01*
X736773Y838025D01*
X736855Y837952D01*
X736931Y837873D01*
X736974Y837847D01*
X737011Y837814D01*
X737109Y837764D01*
X737202Y837707D01*
X737250Y837692D01*
X737294Y837670D01*
X737401Y837646D01*
X737506Y837613D01*
X737556Y837611D01*
X737605Y837600D01*
X737714Y837603D01*
X737824Y837598D01*
X737873Y837608D01*
X737922Y837610D01*
X738028Y837640D01*
X738135Y837662D01*
X738180Y837684D01*
X738228Y837698D01*
X738322Y837754D01*
X738421Y837802D01*
X738459Y837835D01*
X738462Y837836D01*
X740568Y838709D01*
X742792Y838709D01*
X744003Y838207D01*
X744118Y838176D01*
X744231Y838137D01*
X744271Y838134D01*
X744310Y838123D01*
X744429Y838121D01*
X744548Y838112D01*
X744587Y838119D01*
X744628Y838118D01*
X744744Y838146D01*
X744861Y838166D01*
X744898Y838183D01*
X744937Y838192D01*
X745042Y838248D01*
X745151Y838297D01*
X745182Y838322D01*
X745218Y838341D01*
X745306Y838421D01*
X745399Y838495D01*
X745424Y838527D01*
X745454Y838555D01*
X745519Y838654D01*
X745591Y838749D01*
X745617Y838803D01*
X745628Y838820D01*
X745635Y838840D01*
X745661Y838894D01*
X746270Y840364D01*
X748736Y842830D01*
X751957Y844164D01*
X755443Y844164D01*
X758664Y842830D01*
X761130Y840364D01*
X762464Y837143D01*
X762464Y833657D01*
X761130Y830436D01*
X758664Y827970D01*
X755443Y826636D01*
X751957Y826636D01*
X748736Y827970D01*
X747482Y829224D01*
X747388Y829297D01*
X747299Y829376D01*
X747263Y829394D01*
X747231Y829419D01*
X747122Y829466D01*
X747016Y829520D01*
X746976Y829529D01*
X746939Y829545D01*
X746822Y829564D01*
X746706Y829590D01*
X746665Y829589D01*
X746625Y829595D01*
X746507Y829584D01*
X746388Y829580D01*
X746349Y829569D01*
X746309Y829565D01*
X746196Y829525D01*
X746082Y829492D01*
X746047Y829471D01*
X746009Y829458D01*
X745911Y829391D01*
X745808Y829330D01*
X745763Y829290D01*
X745746Y829279D01*
X745733Y829264D01*
X745687Y829224D01*
X744846Y828382D01*
X742792Y827531D01*
X740568Y827531D01*
X738514Y828382D01*
X736993Y829904D01*
X736898Y829977D01*
X736809Y830056D01*
X736773Y830074D01*
X736741Y830099D01*
X736632Y830146D01*
X736526Y830200D01*
X736487Y830209D01*
X736449Y830225D01*
X736332Y830244D01*
X736216Y830270D01*
X736175Y830269D01*
X736135Y830275D01*
X736017Y830264D01*
X735898Y830260D01*
X735859Y830249D01*
X735819Y830245D01*
X735707Y830205D01*
X735592Y830172D01*
X735558Y830151D01*
X735519Y830138D01*
X735421Y830071D01*
X735318Y830010D01*
X735273Y829970D01*
X735256Y829959D01*
X735243Y829944D01*
X735198Y829904D01*
X733264Y827970D01*
X730043Y826636D01*
X726557Y826636D01*
G37*
%LPD*%
%LPC*%
G36*
X874514Y530219D02*
X874514Y530219D01*
X871213Y531586D01*
X868686Y534113D01*
X867319Y537414D01*
X867319Y540986D01*
X868686Y544287D01*
X871213Y546814D01*
X874143Y548027D01*
X874264Y548096D01*
X874387Y548161D01*
X874402Y548175D01*
X874420Y548185D01*
X874520Y548282D01*
X874622Y548375D01*
X874633Y548392D01*
X874648Y548406D01*
X874721Y548525D01*
X874797Y548641D01*
X874804Y548660D01*
X874814Y548677D01*
X874855Y548810D01*
X874900Y548942D01*
X874902Y548962D01*
X874908Y548981D01*
X874915Y549120D01*
X874926Y549259D01*
X874922Y549279D01*
X874923Y549299D01*
X874895Y549435D01*
X874871Y549572D01*
X874863Y549591D01*
X874859Y549610D01*
X874797Y549736D01*
X874741Y549862D01*
X874728Y549878D01*
X874719Y549896D01*
X874629Y550002D01*
X874542Y550110D01*
X874526Y550123D01*
X874513Y550138D01*
X874399Y550218D01*
X874288Y550302D01*
X874263Y550314D01*
X874253Y550321D01*
X874233Y550328D01*
X874143Y550373D01*
X871213Y551586D01*
X868686Y554113D01*
X867319Y557414D01*
X867319Y560986D01*
X868686Y564287D01*
X871213Y566814D01*
X874514Y568181D01*
X878086Y568181D01*
X881387Y566814D01*
X883914Y564287D01*
X885281Y560986D01*
X885281Y557414D01*
X883914Y554113D01*
X881387Y551586D01*
X878457Y550373D01*
X878336Y550304D01*
X878213Y550239D01*
X878198Y550225D01*
X878180Y550215D01*
X878080Y550118D01*
X877978Y550025D01*
X877966Y550008D01*
X877952Y549994D01*
X877879Y549876D01*
X877803Y549759D01*
X877796Y549740D01*
X877786Y549723D01*
X877745Y549590D01*
X877700Y549458D01*
X877698Y549438D01*
X877692Y549419D01*
X877685Y549280D01*
X877674Y549141D01*
X877678Y549121D01*
X877677Y549101D01*
X877705Y548965D01*
X877729Y548828D01*
X877737Y548809D01*
X877741Y548790D01*
X877802Y548665D01*
X877859Y548538D01*
X877872Y548522D01*
X877881Y548504D01*
X877971Y548398D01*
X878058Y548290D01*
X878074Y548277D01*
X878087Y548262D01*
X878201Y548182D01*
X878312Y548098D01*
X878337Y548086D01*
X878347Y548079D01*
X878367Y548072D01*
X878457Y548027D01*
X881387Y546814D01*
X883914Y544287D01*
X885281Y540986D01*
X885281Y537414D01*
X883914Y534113D01*
X881387Y531586D01*
X878086Y530219D01*
X874514Y530219D01*
G37*
%LPD*%
%LPC*%
G36*
X885545Y203159D02*
X885545Y203159D01*
X881010Y205038D01*
X877538Y208510D01*
X875659Y213045D01*
X875659Y217955D01*
X877538Y222490D01*
X881010Y225962D01*
X885545Y227841D01*
X890455Y227841D01*
X894990Y225962D01*
X898462Y222490D01*
X900341Y217955D01*
X900341Y213045D01*
X898462Y208510D01*
X894990Y205038D01*
X890455Y203159D01*
X885545Y203159D01*
G37*
%LPD*%
%LPC*%
G36*
X125545Y153159D02*
X125545Y153159D01*
X121010Y155038D01*
X117538Y158510D01*
X115659Y163045D01*
X115659Y167955D01*
X117538Y172490D01*
X121010Y175962D01*
X125545Y177841D01*
X130455Y177841D01*
X134990Y175962D01*
X138462Y172490D01*
X140341Y167955D01*
X140341Y163045D01*
X138462Y158510D01*
X134990Y155038D01*
X130455Y153159D01*
X125545Y153159D01*
G37*
%LPD*%
%LPC*%
G36*
X250545Y153159D02*
X250545Y153159D01*
X246010Y155038D01*
X242538Y158510D01*
X240659Y163045D01*
X240659Y167955D01*
X242538Y172490D01*
X246010Y175962D01*
X250545Y177841D01*
X255455Y177841D01*
X259990Y175962D01*
X263462Y172490D01*
X265341Y167955D01*
X265341Y163045D01*
X263462Y158510D01*
X259990Y155038D01*
X255455Y153159D01*
X250545Y153159D01*
G37*
%LPD*%
%LPC*%
G36*
X760545Y153159D02*
X760545Y153159D01*
X756010Y155038D01*
X752538Y158510D01*
X750659Y163045D01*
X750659Y167955D01*
X752538Y172490D01*
X756010Y175962D01*
X760545Y177841D01*
X765455Y177841D01*
X769990Y175962D01*
X773462Y172490D01*
X775341Y167955D01*
X775341Y163045D01*
X773462Y158510D01*
X769990Y155038D01*
X765455Y153159D01*
X760545Y153159D01*
G37*
%LPD*%
%LPC*%
G36*
X760545Y203159D02*
X760545Y203159D01*
X756010Y205038D01*
X752538Y208510D01*
X750659Y213045D01*
X750659Y217955D01*
X752538Y222490D01*
X756010Y225962D01*
X760545Y227841D01*
X765455Y227841D01*
X769990Y225962D01*
X773462Y222490D01*
X775341Y217955D01*
X775341Y213045D01*
X773462Y208510D01*
X769990Y205038D01*
X765455Y203159D01*
X760545Y203159D01*
G37*
%LPD*%
%LPC*%
G36*
X885545Y153159D02*
X885545Y153159D01*
X881010Y155038D01*
X877538Y158510D01*
X875659Y163045D01*
X875659Y167955D01*
X877538Y172490D01*
X881010Y175962D01*
X885545Y177841D01*
X890455Y177841D01*
X894990Y175962D01*
X898462Y172490D01*
X900341Y167955D01*
X900341Y163045D01*
X898462Y158510D01*
X894990Y155038D01*
X890455Y153159D01*
X885545Y153159D01*
G37*
%LPD*%
%LPC*%
G36*
X125545Y203159D02*
X125545Y203159D01*
X121010Y205038D01*
X117538Y208510D01*
X115659Y213045D01*
X115659Y217955D01*
X117538Y222490D01*
X121010Y225962D01*
X125545Y227841D01*
X130455Y227841D01*
X134990Y225962D01*
X138462Y222490D01*
X140341Y217955D01*
X140341Y213045D01*
X138462Y208510D01*
X134990Y205038D01*
X130455Y203159D01*
X125545Y203159D01*
G37*
%LPD*%
%LPC*%
G36*
X250545Y203159D02*
X250545Y203159D01*
X246010Y205038D01*
X242538Y208510D01*
X240659Y213045D01*
X240659Y217955D01*
X242538Y222490D01*
X246010Y225962D01*
X250545Y227841D01*
X255455Y227841D01*
X259990Y225962D01*
X263462Y222490D01*
X265341Y217955D01*
X265341Y213045D01*
X263462Y208510D01*
X259990Y205038D01*
X255455Y203159D01*
X250545Y203159D01*
G37*
%LPD*%
%LPC*%
G36*
X633102Y1171559D02*
X633102Y1171559D01*
X629596Y1173012D01*
X626912Y1175696D01*
X625459Y1179202D01*
X625459Y1182998D01*
X626912Y1186504D01*
X629596Y1189188D01*
X633102Y1190641D01*
X636898Y1190641D01*
X640404Y1189188D01*
X643088Y1186504D01*
X644541Y1182998D01*
X644541Y1179202D01*
X643088Y1175696D01*
X640404Y1173012D01*
X636898Y1171559D01*
X633102Y1171559D01*
G37*
%LPD*%
%LPC*%
G36*
X607702Y1171559D02*
X607702Y1171559D01*
X604196Y1173012D01*
X601512Y1175696D01*
X600059Y1179202D01*
X600059Y1182998D01*
X601512Y1186504D01*
X604196Y1189188D01*
X607702Y1190641D01*
X611498Y1190641D01*
X615004Y1189188D01*
X617688Y1186504D01*
X619141Y1182998D01*
X619141Y1179202D01*
X617688Y1175696D01*
X615004Y1173012D01*
X611498Y1171559D01*
X607702Y1171559D01*
G37*
%LPD*%
%LPC*%
G36*
X582302Y1171559D02*
X582302Y1171559D01*
X578796Y1173012D01*
X576112Y1175696D01*
X574659Y1179202D01*
X574659Y1182998D01*
X576112Y1186504D01*
X578796Y1189188D01*
X582302Y1190641D01*
X586098Y1190641D01*
X589604Y1189188D01*
X592288Y1186504D01*
X593741Y1182998D01*
X593741Y1179202D01*
X592288Y1175696D01*
X589604Y1173012D01*
X586098Y1171559D01*
X582302Y1171559D01*
G37*
%LPD*%
%LPC*%
G36*
X556902Y1171559D02*
X556902Y1171559D01*
X553396Y1173012D01*
X550712Y1175696D01*
X549259Y1179202D01*
X549259Y1182998D01*
X550712Y1186504D01*
X553396Y1189188D01*
X556902Y1190641D01*
X560698Y1190641D01*
X564204Y1189188D01*
X566888Y1186504D01*
X568341Y1182998D01*
X568341Y1179202D01*
X566888Y1175696D01*
X564204Y1173012D01*
X560698Y1171559D01*
X556902Y1171559D01*
G37*
%LPD*%
%LPC*%
G36*
X531502Y1171559D02*
X531502Y1171559D01*
X527996Y1173012D01*
X525312Y1175696D01*
X523859Y1179202D01*
X523859Y1182998D01*
X525312Y1186504D01*
X527996Y1189188D01*
X531502Y1190641D01*
X535298Y1190641D01*
X538804Y1189188D01*
X541488Y1186504D01*
X542941Y1182998D01*
X542941Y1179202D01*
X541488Y1175696D01*
X538804Y1173012D01*
X535298Y1171559D01*
X531502Y1171559D01*
G37*
%LPD*%
%LPC*%
G36*
X506102Y1171559D02*
X506102Y1171559D01*
X502596Y1173012D01*
X499912Y1175696D01*
X498459Y1179202D01*
X498459Y1182998D01*
X499912Y1186504D01*
X502596Y1189188D01*
X506102Y1190641D01*
X509898Y1190641D01*
X513404Y1189188D01*
X516088Y1186504D01*
X517541Y1182998D01*
X517541Y1179202D01*
X516088Y1175696D01*
X513404Y1173012D01*
X509898Y1171559D01*
X506102Y1171559D01*
G37*
%LPD*%
%LPC*%
G36*
X480702Y1171559D02*
X480702Y1171559D01*
X477196Y1173012D01*
X474512Y1175696D01*
X473059Y1179202D01*
X473059Y1182998D01*
X474512Y1186504D01*
X477196Y1189188D01*
X480702Y1190641D01*
X484498Y1190641D01*
X488004Y1189188D01*
X490688Y1186504D01*
X492141Y1182998D01*
X492141Y1179202D01*
X490688Y1175696D01*
X488004Y1173012D01*
X484498Y1171559D01*
X480702Y1171559D01*
G37*
%LPD*%
%LPC*%
G36*
X455302Y1171559D02*
X455302Y1171559D01*
X451796Y1173012D01*
X449112Y1175696D01*
X447659Y1179202D01*
X447659Y1182998D01*
X449112Y1186504D01*
X451796Y1189188D01*
X455302Y1190641D01*
X459098Y1190641D01*
X462604Y1189188D01*
X465288Y1186504D01*
X466741Y1182998D01*
X466741Y1179202D01*
X465288Y1175696D01*
X462604Y1173012D01*
X459098Y1171559D01*
X455302Y1171559D01*
G37*
%LPD*%
%LPC*%
G36*
X429902Y1171559D02*
X429902Y1171559D01*
X426396Y1173012D01*
X423712Y1175696D01*
X422259Y1179202D01*
X422259Y1182998D01*
X423712Y1186504D01*
X426396Y1189188D01*
X429902Y1190641D01*
X433698Y1190641D01*
X437204Y1189188D01*
X439888Y1186504D01*
X441341Y1182998D01*
X441341Y1179202D01*
X439888Y1175696D01*
X437204Y1173012D01*
X433698Y1171559D01*
X429902Y1171559D01*
G37*
%LPD*%
%LPC*%
G36*
X404502Y1171559D02*
X404502Y1171559D01*
X400996Y1173012D01*
X398312Y1175696D01*
X396859Y1179202D01*
X396859Y1182998D01*
X398312Y1186504D01*
X400996Y1189188D01*
X404502Y1190641D01*
X408298Y1190641D01*
X411804Y1189188D01*
X414488Y1186504D01*
X415941Y1182998D01*
X415941Y1179202D01*
X414488Y1175696D01*
X411804Y1173012D01*
X408298Y1171559D01*
X404502Y1171559D01*
G37*
%LPD*%
%LPC*%
G36*
X379102Y1171559D02*
X379102Y1171559D01*
X375596Y1173012D01*
X372912Y1175696D01*
X371459Y1179202D01*
X371459Y1182998D01*
X372912Y1186504D01*
X375596Y1189188D01*
X379102Y1190641D01*
X382898Y1190641D01*
X386404Y1189188D01*
X389088Y1186504D01*
X390541Y1182998D01*
X390541Y1179202D01*
X389088Y1175696D01*
X386404Y1173012D01*
X382898Y1171559D01*
X379102Y1171559D01*
G37*
%LPD*%
%LPC*%
G36*
X353702Y1171559D02*
X353702Y1171559D01*
X350196Y1173012D01*
X347512Y1175696D01*
X346059Y1179202D01*
X346059Y1182998D01*
X347512Y1186504D01*
X350196Y1189188D01*
X353702Y1190641D01*
X357498Y1190641D01*
X361004Y1189188D01*
X363688Y1186504D01*
X365141Y1182998D01*
X365141Y1179202D01*
X363688Y1175696D01*
X361004Y1173012D01*
X357498Y1171559D01*
X353702Y1171559D01*
G37*
%LPD*%
%LPC*%
G36*
X328302Y1171559D02*
X328302Y1171559D01*
X324796Y1173012D01*
X322112Y1175696D01*
X320659Y1179202D01*
X320659Y1182998D01*
X322112Y1186504D01*
X324796Y1189188D01*
X328302Y1190641D01*
X332098Y1190641D01*
X335604Y1189188D01*
X338288Y1186504D01*
X339741Y1182998D01*
X339741Y1179202D01*
X338288Y1175696D01*
X335604Y1173012D01*
X332098Y1171559D01*
X328302Y1171559D01*
G37*
%LPD*%
%LPC*%
G36*
X302902Y1171559D02*
X302902Y1171559D01*
X299396Y1173012D01*
X296712Y1175696D01*
X295259Y1179202D01*
X295259Y1182998D01*
X296712Y1186504D01*
X299396Y1189188D01*
X302902Y1190641D01*
X306698Y1190641D01*
X310204Y1189188D01*
X312888Y1186504D01*
X314341Y1182998D01*
X314341Y1179202D01*
X312888Y1175696D01*
X310204Y1173012D01*
X306698Y1171559D01*
X302902Y1171559D01*
G37*
%LPD*%
%LPC*%
G36*
X252102Y1171559D02*
X252102Y1171559D01*
X248596Y1173012D01*
X245912Y1175696D01*
X244459Y1179202D01*
X244459Y1182998D01*
X245912Y1186504D01*
X248596Y1189188D01*
X252102Y1190641D01*
X255898Y1190641D01*
X259404Y1189188D01*
X262088Y1186504D01*
X263541Y1182998D01*
X263541Y1179202D01*
X262088Y1175696D01*
X259404Y1173012D01*
X255898Y1171559D01*
X252102Y1171559D01*
G37*
%LPD*%
%LPC*%
G36*
X226702Y1171559D02*
X226702Y1171559D01*
X223196Y1173012D01*
X220512Y1175696D01*
X219059Y1179202D01*
X219059Y1182998D01*
X220512Y1186504D01*
X223196Y1189188D01*
X226702Y1190641D01*
X230498Y1190641D01*
X234004Y1189188D01*
X236688Y1186504D01*
X238141Y1182998D01*
X238141Y1179202D01*
X236688Y1175696D01*
X234004Y1173012D01*
X230498Y1171559D01*
X226702Y1171559D01*
G37*
%LPD*%
%LPC*%
G36*
X201302Y1171559D02*
X201302Y1171559D01*
X197796Y1173012D01*
X195112Y1175696D01*
X193659Y1179202D01*
X193659Y1182998D01*
X195112Y1186504D01*
X197796Y1189188D01*
X201302Y1190641D01*
X205098Y1190641D01*
X208604Y1189188D01*
X211288Y1186504D01*
X212741Y1182998D01*
X212741Y1179202D01*
X211288Y1175696D01*
X208604Y1173012D01*
X205098Y1171559D01*
X201302Y1171559D01*
G37*
%LPD*%
%LPC*%
G36*
X175902Y1171559D02*
X175902Y1171559D01*
X172396Y1173012D01*
X169712Y1175696D01*
X168259Y1179202D01*
X168259Y1182998D01*
X169712Y1186504D01*
X172396Y1189188D01*
X175902Y1190641D01*
X179698Y1190641D01*
X183204Y1189188D01*
X185888Y1186504D01*
X187341Y1182998D01*
X187341Y1179202D01*
X185888Y1175696D01*
X183204Y1173012D01*
X179698Y1171559D01*
X175902Y1171559D01*
G37*
%LPD*%
%LPC*%
G36*
X150502Y1171559D02*
X150502Y1171559D01*
X146996Y1173012D01*
X144312Y1175696D01*
X142859Y1179202D01*
X142859Y1182998D01*
X144312Y1186504D01*
X146996Y1189188D01*
X150502Y1190641D01*
X154298Y1190641D01*
X157804Y1189188D01*
X160488Y1186504D01*
X161941Y1182998D01*
X161941Y1179202D01*
X160488Y1175696D01*
X157804Y1173012D01*
X154298Y1171559D01*
X150502Y1171559D01*
G37*
%LPD*%
%LPC*%
G36*
X569602Y117459D02*
X569602Y117459D01*
X566096Y118912D01*
X563412Y121596D01*
X561959Y125102D01*
X561959Y128898D01*
X563412Y132404D01*
X566096Y135088D01*
X569602Y136541D01*
X573398Y136541D01*
X576904Y135088D01*
X579588Y132404D01*
X581041Y128898D01*
X581041Y125102D01*
X579588Y121596D01*
X576904Y118912D01*
X573398Y117459D01*
X569602Y117459D01*
G37*
%LPD*%
%LPC*%
G36*
X544602Y117459D02*
X544602Y117459D01*
X541096Y118912D01*
X538412Y121596D01*
X536959Y125102D01*
X536959Y128898D01*
X538412Y132404D01*
X541096Y135088D01*
X544602Y136541D01*
X548398Y136541D01*
X551904Y135088D01*
X554588Y132404D01*
X556041Y128898D01*
X556041Y125102D01*
X554588Y121596D01*
X551904Y118912D01*
X548398Y117459D01*
X544602Y117459D01*
G37*
%LPD*%
%LPC*%
G36*
X404102Y117459D02*
X404102Y117459D01*
X400596Y118912D01*
X397912Y121596D01*
X396459Y125102D01*
X396459Y128898D01*
X397912Y132404D01*
X400596Y135088D01*
X404102Y136541D01*
X407898Y136541D01*
X411404Y135088D01*
X414088Y132404D01*
X415541Y128898D01*
X415541Y125102D01*
X414088Y121596D01*
X411404Y118912D01*
X407898Y117459D01*
X404102Y117459D01*
G37*
%LPD*%
%LPC*%
G36*
X379102Y117459D02*
X379102Y117459D01*
X375596Y118912D01*
X372912Y121596D01*
X371459Y125102D01*
X371459Y128898D01*
X372912Y132404D01*
X375596Y135088D01*
X379102Y136541D01*
X382898Y136541D01*
X386404Y135088D01*
X389088Y132404D01*
X390541Y128898D01*
X390541Y125102D01*
X389088Y121596D01*
X386404Y118912D01*
X382898Y117459D01*
X379102Y117459D01*
G37*
%LPD*%
%LPC*%
G36*
X354102Y117459D02*
X354102Y117459D01*
X350596Y118912D01*
X347912Y121596D01*
X346459Y125102D01*
X346459Y128898D01*
X347912Y132404D01*
X350596Y135088D01*
X354102Y136541D01*
X357898Y136541D01*
X361404Y135088D01*
X364088Y132404D01*
X365541Y128898D01*
X365541Y125102D01*
X364088Y121596D01*
X361404Y118912D01*
X357898Y117459D01*
X354102Y117459D01*
G37*
%LPD*%
%LPC*%
G36*
X556902Y409559D02*
X556902Y409559D01*
X553396Y411012D01*
X550712Y413696D01*
X549259Y417202D01*
X549259Y420998D01*
X550712Y424504D01*
X553396Y427188D01*
X556902Y428641D01*
X560698Y428641D01*
X564204Y427188D01*
X566888Y424504D01*
X568341Y420998D01*
X568341Y417202D01*
X566888Y413696D01*
X564204Y411012D01*
X560698Y409559D01*
X556902Y409559D01*
G37*
%LPD*%
%LPC*%
G36*
X277502Y1171559D02*
X277502Y1171559D01*
X273996Y1173012D01*
X271312Y1175696D01*
X269859Y1179202D01*
X269859Y1182998D01*
X271312Y1186504D01*
X273996Y1189188D01*
X277502Y1190641D01*
X281298Y1190641D01*
X284804Y1189188D01*
X287488Y1186504D01*
X288941Y1182998D01*
X288941Y1179202D01*
X287488Y1175696D01*
X284804Y1173012D01*
X281298Y1171559D01*
X277502Y1171559D01*
G37*
%LPD*%
%LPC*%
G36*
X633102Y409559D02*
X633102Y409559D01*
X629596Y411012D01*
X626912Y413696D01*
X625459Y417202D01*
X625459Y420998D01*
X626912Y424504D01*
X629596Y427188D01*
X633102Y428641D01*
X636898Y428641D01*
X640404Y427188D01*
X643088Y424504D01*
X644541Y420998D01*
X644541Y417202D01*
X643088Y413696D01*
X640404Y411012D01*
X636898Y409559D01*
X633102Y409559D01*
G37*
%LPD*%
%LPC*%
G36*
X607702Y409559D02*
X607702Y409559D01*
X604196Y411012D01*
X601512Y413696D01*
X600059Y417202D01*
X600059Y420998D01*
X601512Y424504D01*
X604196Y427188D01*
X607702Y428641D01*
X611498Y428641D01*
X615004Y427188D01*
X617688Y424504D01*
X619141Y420998D01*
X619141Y417202D01*
X617688Y413696D01*
X615004Y411012D01*
X611498Y409559D01*
X607702Y409559D01*
G37*
%LPD*%
%LPC*%
G36*
X480702Y409559D02*
X480702Y409559D01*
X477196Y411012D01*
X474512Y413696D01*
X473059Y417202D01*
X473059Y420998D01*
X474512Y424504D01*
X477196Y427188D01*
X480702Y428641D01*
X484498Y428641D01*
X488004Y427188D01*
X490688Y424504D01*
X492141Y420998D01*
X492141Y417202D01*
X490688Y413696D01*
X488004Y411012D01*
X484498Y409559D01*
X480702Y409559D01*
G37*
%LPD*%
%LPC*%
G36*
X455302Y409559D02*
X455302Y409559D01*
X451796Y411012D01*
X449112Y413696D01*
X447659Y417202D01*
X447659Y420998D01*
X449112Y424504D01*
X451796Y427188D01*
X455302Y428641D01*
X459098Y428641D01*
X462604Y427188D01*
X465288Y424504D01*
X466741Y420998D01*
X466741Y417202D01*
X465288Y413696D01*
X462604Y411012D01*
X459098Y409559D01*
X455302Y409559D01*
G37*
%LPD*%
%LPC*%
G36*
X582302Y409559D02*
X582302Y409559D01*
X578796Y411012D01*
X576112Y413696D01*
X574659Y417202D01*
X574659Y420998D01*
X576112Y424504D01*
X578796Y427188D01*
X582302Y428641D01*
X586098Y428641D01*
X589604Y427188D01*
X592288Y424504D01*
X593741Y420998D01*
X593741Y417202D01*
X592288Y413696D01*
X589604Y411012D01*
X586098Y409559D01*
X582302Y409559D01*
G37*
%LPD*%
%LPC*%
G36*
X531502Y409559D02*
X531502Y409559D01*
X527996Y411012D01*
X525312Y413696D01*
X523859Y417202D01*
X523859Y420998D01*
X525312Y424504D01*
X527996Y427188D01*
X531502Y428641D01*
X535298Y428641D01*
X538804Y427188D01*
X541488Y424504D01*
X542941Y420998D01*
X542941Y417202D01*
X541488Y413696D01*
X538804Y411012D01*
X535298Y409559D01*
X531502Y409559D01*
G37*
%LPD*%
%LPC*%
G36*
X506102Y409559D02*
X506102Y409559D01*
X502596Y411012D01*
X499912Y413696D01*
X498459Y417202D01*
X498459Y420998D01*
X499912Y424504D01*
X502596Y427188D01*
X506102Y428641D01*
X509898Y428641D01*
X513404Y427188D01*
X516088Y424504D01*
X517541Y420998D01*
X517541Y417202D01*
X516088Y413696D01*
X513404Y411012D01*
X509898Y409559D01*
X506102Y409559D01*
G37*
%LPD*%
%LPC*%
G36*
X175902Y409559D02*
X175902Y409559D01*
X172396Y411012D01*
X169712Y413696D01*
X168259Y417202D01*
X168259Y420998D01*
X169712Y424504D01*
X172396Y427188D01*
X175902Y428641D01*
X179698Y428641D01*
X183204Y427188D01*
X185888Y424504D01*
X187341Y420998D01*
X187341Y417202D01*
X185888Y413696D01*
X183204Y411012D01*
X179698Y409559D01*
X175902Y409559D01*
G37*
%LPD*%
%LPC*%
G36*
X150502Y409559D02*
X150502Y409559D01*
X146996Y411012D01*
X144312Y413696D01*
X142859Y417202D01*
X142859Y420998D01*
X144312Y424504D01*
X146996Y427188D01*
X150502Y428641D01*
X154298Y428641D01*
X157804Y427188D01*
X160488Y424504D01*
X161941Y420998D01*
X161941Y417202D01*
X160488Y413696D01*
X157804Y411012D01*
X154298Y409559D01*
X150502Y409559D01*
G37*
%LPD*%
%LPC*%
G36*
X429902Y409559D02*
X429902Y409559D01*
X426396Y411012D01*
X423712Y413696D01*
X422259Y417202D01*
X422259Y420998D01*
X423712Y424504D01*
X426396Y427188D01*
X429902Y428641D01*
X433698Y428641D01*
X437204Y427188D01*
X439888Y424504D01*
X441341Y420998D01*
X441341Y417202D01*
X439888Y413696D01*
X437204Y411012D01*
X433698Y409559D01*
X429902Y409559D01*
G37*
%LPD*%
%LPC*%
G36*
X404502Y409559D02*
X404502Y409559D01*
X400996Y411012D01*
X398312Y413696D01*
X396859Y417202D01*
X396859Y420998D01*
X398312Y424504D01*
X400996Y427188D01*
X404502Y428641D01*
X408298Y428641D01*
X411804Y427188D01*
X414488Y424504D01*
X415941Y420998D01*
X415941Y417202D01*
X414488Y413696D01*
X411804Y411012D01*
X408298Y409559D01*
X404502Y409559D01*
G37*
%LPD*%
%LPC*%
G36*
X379102Y409559D02*
X379102Y409559D01*
X375596Y411012D01*
X372912Y413696D01*
X371459Y417202D01*
X371459Y420998D01*
X372912Y424504D01*
X375596Y427188D01*
X379102Y428641D01*
X382898Y428641D01*
X386404Y427188D01*
X389088Y424504D01*
X390541Y420998D01*
X390541Y417202D01*
X389088Y413696D01*
X386404Y411012D01*
X382898Y409559D01*
X379102Y409559D01*
G37*
%LPD*%
%LPC*%
G36*
X353702Y409559D02*
X353702Y409559D01*
X350196Y411012D01*
X347512Y413696D01*
X346059Y417202D01*
X346059Y420998D01*
X347512Y424504D01*
X350196Y427188D01*
X353702Y428641D01*
X357498Y428641D01*
X361004Y427188D01*
X363688Y424504D01*
X365141Y420998D01*
X365141Y417202D01*
X363688Y413696D01*
X361004Y411012D01*
X357498Y409559D01*
X353702Y409559D01*
G37*
%LPD*%
%LPC*%
G36*
X328302Y409559D02*
X328302Y409559D01*
X324796Y411012D01*
X322112Y413696D01*
X320659Y417202D01*
X320659Y420998D01*
X322112Y424504D01*
X324796Y427188D01*
X328302Y428641D01*
X332098Y428641D01*
X335604Y427188D01*
X338288Y424504D01*
X339741Y420998D01*
X339741Y417202D01*
X338288Y413696D01*
X335604Y411012D01*
X332098Y409559D01*
X328302Y409559D01*
G37*
%LPD*%
%LPC*%
G36*
X302902Y409559D02*
X302902Y409559D01*
X299396Y411012D01*
X296712Y413696D01*
X295259Y417202D01*
X295259Y420998D01*
X296712Y424504D01*
X299396Y427188D01*
X302902Y428641D01*
X306698Y428641D01*
X310204Y427188D01*
X312888Y424504D01*
X314341Y420998D01*
X314341Y417202D01*
X312888Y413696D01*
X310204Y411012D01*
X306698Y409559D01*
X302902Y409559D01*
G37*
%LPD*%
%LPC*%
G36*
X277502Y409559D02*
X277502Y409559D01*
X273996Y411012D01*
X271312Y413696D01*
X269859Y417202D01*
X269859Y420998D01*
X271312Y424504D01*
X273996Y427188D01*
X277502Y428641D01*
X281298Y428641D01*
X284804Y427188D01*
X287488Y424504D01*
X288941Y420998D01*
X288941Y417202D01*
X287488Y413696D01*
X284804Y411012D01*
X281298Y409559D01*
X277502Y409559D01*
G37*
%LPD*%
%LPC*%
G36*
X252102Y409559D02*
X252102Y409559D01*
X248596Y411012D01*
X245912Y413696D01*
X244459Y417202D01*
X244459Y420998D01*
X245912Y424504D01*
X248596Y427188D01*
X252102Y428641D01*
X255898Y428641D01*
X259404Y427188D01*
X262088Y424504D01*
X263541Y420998D01*
X263541Y417202D01*
X262088Y413696D01*
X259404Y411012D01*
X255898Y409559D01*
X252102Y409559D01*
G37*
%LPD*%
%LPC*%
G36*
X226702Y409559D02*
X226702Y409559D01*
X223196Y411012D01*
X220512Y413696D01*
X219059Y417202D01*
X219059Y420998D01*
X220512Y424504D01*
X223196Y427188D01*
X226702Y428641D01*
X230498Y428641D01*
X234004Y427188D01*
X236688Y424504D01*
X238141Y420998D01*
X238141Y417202D01*
X236688Y413696D01*
X234004Y411012D01*
X230498Y409559D01*
X226702Y409559D01*
G37*
%LPD*%
%LPC*%
G36*
X594602Y117459D02*
X594602Y117459D01*
X591096Y118912D01*
X588412Y121596D01*
X586959Y125102D01*
X586959Y128898D01*
X588412Y132404D01*
X591096Y135088D01*
X594602Y136541D01*
X598398Y136541D01*
X601904Y135088D01*
X604588Y132404D01*
X606041Y128898D01*
X606041Y125102D01*
X604588Y121596D01*
X601904Y118912D01*
X598398Y117459D01*
X594602Y117459D01*
G37*
%LPD*%
%LPC*%
G36*
X874514Y505219D02*
X874514Y505219D01*
X871213Y506586D01*
X868686Y509113D01*
X867319Y512414D01*
X867319Y515986D01*
X868686Y519287D01*
X871213Y521814D01*
X874514Y523181D01*
X878086Y523181D01*
X881387Y521814D01*
X883914Y519287D01*
X885281Y515986D01*
X885281Y512414D01*
X883914Y509113D01*
X881387Y506586D01*
X878086Y505219D01*
X874514Y505219D01*
G37*
%LPD*%
%LPC*%
G36*
X874514Y575219D02*
X874514Y575219D01*
X871213Y576586D01*
X868686Y579113D01*
X867319Y582414D01*
X867319Y585986D01*
X868686Y589287D01*
X871213Y591814D01*
X874514Y593181D01*
X878086Y593181D01*
X881387Y591814D01*
X883914Y589287D01*
X885281Y585986D01*
X885281Y582414D01*
X883914Y579113D01*
X881387Y576586D01*
X878086Y575219D01*
X874514Y575219D01*
G37*
%LPD*%
%LPC*%
G36*
X777357Y1080636D02*
X777357Y1080636D01*
X774136Y1081970D01*
X771670Y1084436D01*
X770336Y1087657D01*
X770336Y1091143D01*
X771670Y1094364D01*
X774136Y1096830D01*
X777357Y1098164D01*
X780843Y1098164D01*
X784064Y1096830D01*
X786530Y1094364D01*
X787864Y1091143D01*
X787864Y1087657D01*
X786530Y1084436D01*
X784064Y1081970D01*
X780843Y1080636D01*
X777357Y1080636D01*
G37*
%LPD*%
%LPC*%
G36*
X548757Y1080636D02*
X548757Y1080636D01*
X545536Y1081970D01*
X543070Y1084436D01*
X541736Y1087657D01*
X541736Y1091143D01*
X543070Y1094364D01*
X545536Y1096830D01*
X548757Y1098164D01*
X552243Y1098164D01*
X555464Y1096830D01*
X557930Y1094364D01*
X559264Y1091143D01*
X559264Y1087657D01*
X557930Y1084436D01*
X555464Y1081970D01*
X552243Y1080636D01*
X548757Y1080636D01*
G37*
%LPD*%
%LPC*%
G36*
X523357Y1080636D02*
X523357Y1080636D01*
X520136Y1081970D01*
X517670Y1084436D01*
X516336Y1087657D01*
X516336Y1091143D01*
X517670Y1094364D01*
X520136Y1096830D01*
X523357Y1098164D01*
X526843Y1098164D01*
X530064Y1096830D01*
X532530Y1094364D01*
X533864Y1091143D01*
X533864Y1087657D01*
X532530Y1084436D01*
X530064Y1081970D01*
X526843Y1080636D01*
X523357Y1080636D01*
G37*
%LPD*%
%LPC*%
G36*
X955157Y1080636D02*
X955157Y1080636D01*
X951936Y1081970D01*
X949470Y1084436D01*
X948136Y1087657D01*
X948136Y1091143D01*
X949470Y1094364D01*
X951936Y1096830D01*
X955157Y1098164D01*
X958643Y1098164D01*
X961864Y1096830D01*
X964330Y1094364D01*
X965664Y1091143D01*
X965664Y1087657D01*
X964330Y1084436D01*
X961864Y1081970D01*
X958643Y1080636D01*
X955157Y1080636D01*
G37*
%LPD*%
%LPC*%
G36*
X929757Y1080636D02*
X929757Y1080636D01*
X926536Y1081970D01*
X924070Y1084436D01*
X922736Y1087657D01*
X922736Y1091143D01*
X924070Y1094364D01*
X926536Y1096830D01*
X929757Y1098164D01*
X933243Y1098164D01*
X936464Y1096830D01*
X938930Y1094364D01*
X940264Y1091143D01*
X940264Y1087657D01*
X938930Y1084436D01*
X936464Y1081970D01*
X933243Y1080636D01*
X929757Y1080636D01*
G37*
%LPD*%
%LPC*%
G36*
X904357Y1080636D02*
X904357Y1080636D01*
X901136Y1081970D01*
X898670Y1084436D01*
X897336Y1087657D01*
X897336Y1091143D01*
X898670Y1094364D01*
X901136Y1096830D01*
X904357Y1098164D01*
X907843Y1098164D01*
X911064Y1096830D01*
X913530Y1094364D01*
X914864Y1091143D01*
X914864Y1087657D01*
X913530Y1084436D01*
X911064Y1081970D01*
X907843Y1080636D01*
X904357Y1080636D01*
G37*
%LPD*%
%LPC*%
G36*
X878957Y1080636D02*
X878957Y1080636D01*
X875736Y1081970D01*
X873270Y1084436D01*
X871936Y1087657D01*
X871936Y1091143D01*
X873270Y1094364D01*
X875736Y1096830D01*
X878957Y1098164D01*
X882443Y1098164D01*
X885664Y1096830D01*
X888130Y1094364D01*
X889464Y1091143D01*
X889464Y1087657D01*
X888130Y1084436D01*
X885664Y1081970D01*
X882443Y1080636D01*
X878957Y1080636D01*
G37*
%LPD*%
%LPC*%
G36*
X853557Y1080636D02*
X853557Y1080636D01*
X850336Y1081970D01*
X847870Y1084436D01*
X846536Y1087657D01*
X846536Y1091143D01*
X847870Y1094364D01*
X850336Y1096830D01*
X853557Y1098164D01*
X857043Y1098164D01*
X860264Y1096830D01*
X862730Y1094364D01*
X864064Y1091143D01*
X864064Y1087657D01*
X862730Y1084436D01*
X860264Y1081970D01*
X857043Y1080636D01*
X853557Y1080636D01*
G37*
%LPD*%
%LPC*%
G36*
X828157Y1080636D02*
X828157Y1080636D01*
X824936Y1081970D01*
X822470Y1084436D01*
X821136Y1087657D01*
X821136Y1091143D01*
X822470Y1094364D01*
X824936Y1096830D01*
X828157Y1098164D01*
X831643Y1098164D01*
X834864Y1096830D01*
X837330Y1094364D01*
X838664Y1091143D01*
X838664Y1087657D01*
X837330Y1084436D01*
X834864Y1081970D01*
X831643Y1080636D01*
X828157Y1080636D01*
G37*
%LPD*%
%LPC*%
G36*
X802757Y1080636D02*
X802757Y1080636D01*
X799536Y1081970D01*
X797070Y1084436D01*
X795736Y1087657D01*
X795736Y1091143D01*
X797070Y1094364D01*
X799536Y1096830D01*
X802757Y1098164D01*
X806243Y1098164D01*
X809464Y1096830D01*
X811930Y1094364D01*
X813264Y1091143D01*
X813264Y1087657D01*
X811930Y1084436D01*
X809464Y1081970D01*
X806243Y1080636D01*
X802757Y1080636D01*
G37*
%LPD*%
%LPC*%
G36*
X853557Y1055236D02*
X853557Y1055236D01*
X850336Y1056570D01*
X847870Y1059036D01*
X846536Y1062257D01*
X846536Y1065743D01*
X847870Y1068964D01*
X850336Y1071430D01*
X853557Y1072764D01*
X857043Y1072764D01*
X860264Y1071430D01*
X862730Y1068964D01*
X864064Y1065743D01*
X864064Y1062257D01*
X862730Y1059036D01*
X860264Y1056570D01*
X857043Y1055236D01*
X853557Y1055236D01*
G37*
%LPD*%
%LPC*%
G36*
X751957Y1080636D02*
X751957Y1080636D01*
X748736Y1081970D01*
X746270Y1084436D01*
X744936Y1087657D01*
X744936Y1091143D01*
X746270Y1094364D01*
X748736Y1096830D01*
X751957Y1098164D01*
X755443Y1098164D01*
X758664Y1096830D01*
X761130Y1094364D01*
X762464Y1091143D01*
X762464Y1087657D01*
X761130Y1084436D01*
X758664Y1081970D01*
X755443Y1080636D01*
X751957Y1080636D01*
G37*
%LPD*%
%LPC*%
G36*
X726557Y1080636D02*
X726557Y1080636D01*
X723336Y1081970D01*
X720870Y1084436D01*
X719536Y1087657D01*
X719536Y1091143D01*
X720870Y1094364D01*
X723336Y1096830D01*
X726557Y1098164D01*
X730043Y1098164D01*
X733264Y1096830D01*
X735730Y1094364D01*
X737064Y1091143D01*
X737064Y1087657D01*
X735730Y1084436D01*
X733264Y1081970D01*
X730043Y1080636D01*
X726557Y1080636D01*
G37*
%LPD*%
%LPC*%
G36*
X701157Y1080636D02*
X701157Y1080636D01*
X697936Y1081970D01*
X695470Y1084436D01*
X694136Y1087657D01*
X694136Y1091143D01*
X695470Y1094364D01*
X697936Y1096830D01*
X701157Y1098164D01*
X704643Y1098164D01*
X707864Y1096830D01*
X710330Y1094364D01*
X711664Y1091143D01*
X711664Y1087657D01*
X710330Y1084436D01*
X707864Y1081970D01*
X704643Y1080636D01*
X701157Y1080636D01*
G37*
%LPD*%
%LPC*%
G36*
X675757Y1080636D02*
X675757Y1080636D01*
X672536Y1081970D01*
X670070Y1084436D01*
X668736Y1087657D01*
X668736Y1091143D01*
X670070Y1094364D01*
X672536Y1096830D01*
X675757Y1098164D01*
X679243Y1098164D01*
X682464Y1096830D01*
X684930Y1094364D01*
X686264Y1091143D01*
X686264Y1087657D01*
X684930Y1084436D01*
X682464Y1081970D01*
X679243Y1080636D01*
X675757Y1080636D01*
G37*
%LPD*%
%LPC*%
G36*
X650357Y1080636D02*
X650357Y1080636D01*
X647136Y1081970D01*
X644670Y1084436D01*
X643336Y1087657D01*
X643336Y1091143D01*
X644670Y1094364D01*
X647136Y1096830D01*
X650357Y1098164D01*
X653843Y1098164D01*
X657064Y1096830D01*
X659530Y1094364D01*
X660864Y1091143D01*
X660864Y1087657D01*
X659530Y1084436D01*
X657064Y1081970D01*
X653843Y1080636D01*
X650357Y1080636D01*
G37*
%LPD*%
%LPC*%
G36*
X624957Y1080636D02*
X624957Y1080636D01*
X621736Y1081970D01*
X619270Y1084436D01*
X617936Y1087657D01*
X617936Y1091143D01*
X619270Y1094364D01*
X621736Y1096830D01*
X624957Y1098164D01*
X628443Y1098164D01*
X631664Y1096830D01*
X634130Y1094364D01*
X635464Y1091143D01*
X635464Y1087657D01*
X634130Y1084436D01*
X631664Y1081970D01*
X628443Y1080636D01*
X624957Y1080636D01*
G37*
%LPD*%
%LPC*%
G36*
X599557Y1080636D02*
X599557Y1080636D01*
X596336Y1081970D01*
X593870Y1084436D01*
X592536Y1087657D01*
X592536Y1091143D01*
X593870Y1094364D01*
X596336Y1096830D01*
X599557Y1098164D01*
X603043Y1098164D01*
X606264Y1096830D01*
X608730Y1094364D01*
X610064Y1091143D01*
X610064Y1087657D01*
X608730Y1084436D01*
X606264Y1081970D01*
X603043Y1080636D01*
X599557Y1080636D01*
G37*
%LPD*%
%LPC*%
G36*
X574157Y1080636D02*
X574157Y1080636D01*
X570936Y1081970D01*
X568470Y1084436D01*
X567136Y1087657D01*
X567136Y1091143D01*
X568470Y1094364D01*
X570936Y1096830D01*
X574157Y1098164D01*
X577643Y1098164D01*
X580864Y1096830D01*
X583330Y1094364D01*
X584664Y1091143D01*
X584664Y1087657D01*
X583330Y1084436D01*
X580864Y1081970D01*
X577643Y1080636D01*
X574157Y1080636D01*
G37*
%LPD*%
%LPC*%
G36*
X878957Y1055236D02*
X878957Y1055236D01*
X875736Y1056570D01*
X873270Y1059036D01*
X871936Y1062257D01*
X871936Y1065743D01*
X873270Y1068964D01*
X875736Y1071430D01*
X878957Y1072764D01*
X882443Y1072764D01*
X885664Y1071430D01*
X888130Y1068964D01*
X889464Y1065743D01*
X889464Y1062257D01*
X888130Y1059036D01*
X885664Y1056570D01*
X882443Y1055236D01*
X878957Y1055236D01*
G37*
%LPD*%
%LPC*%
G36*
X574157Y801236D02*
X574157Y801236D01*
X570936Y802570D01*
X568470Y805036D01*
X567136Y808257D01*
X567136Y811743D01*
X568470Y814964D01*
X570936Y817430D01*
X574157Y818764D01*
X577643Y818764D01*
X580864Y817430D01*
X583330Y814964D01*
X584664Y811743D01*
X584664Y808257D01*
X583330Y805036D01*
X580864Y802570D01*
X577643Y801236D01*
X574157Y801236D01*
G37*
%LPD*%
%LPC*%
G36*
X955157Y1055236D02*
X955157Y1055236D01*
X951936Y1056570D01*
X949470Y1059036D01*
X948136Y1062257D01*
X948136Y1065743D01*
X949470Y1068964D01*
X951936Y1071430D01*
X955157Y1072764D01*
X958643Y1072764D01*
X961864Y1071430D01*
X964330Y1068964D01*
X965664Y1065743D01*
X965664Y1062257D01*
X964330Y1059036D01*
X961864Y1056570D01*
X958643Y1055236D01*
X955157Y1055236D01*
G37*
%LPD*%
%LPC*%
G36*
X929757Y1055236D02*
X929757Y1055236D01*
X926536Y1056570D01*
X924070Y1059036D01*
X922736Y1062257D01*
X922736Y1065743D01*
X924070Y1068964D01*
X926536Y1071430D01*
X929757Y1072764D01*
X933243Y1072764D01*
X936464Y1071430D01*
X938930Y1068964D01*
X940264Y1065743D01*
X940264Y1062257D01*
X938930Y1059036D01*
X936464Y1056570D01*
X933243Y1055236D01*
X929757Y1055236D01*
G37*
%LPD*%
%LPC*%
G36*
X904357Y1055236D02*
X904357Y1055236D01*
X901136Y1056570D01*
X898670Y1059036D01*
X897336Y1062257D01*
X897336Y1065743D01*
X898670Y1068964D01*
X901136Y1071430D01*
X904357Y1072764D01*
X907843Y1072764D01*
X911064Y1071430D01*
X913530Y1068964D01*
X914864Y1065743D01*
X914864Y1062257D01*
X913530Y1059036D01*
X911064Y1056570D01*
X907843Y1055236D01*
X904357Y1055236D01*
G37*
%LPD*%
%LPC*%
G36*
X751957Y1055236D02*
X751957Y1055236D01*
X748736Y1056570D01*
X746270Y1059036D01*
X744936Y1062257D01*
X744936Y1065743D01*
X746270Y1068964D01*
X748736Y1071430D01*
X751957Y1072764D01*
X755443Y1072764D01*
X758664Y1071430D01*
X761130Y1068964D01*
X762464Y1065743D01*
X762464Y1062257D01*
X761130Y1059036D01*
X758664Y1056570D01*
X755443Y1055236D01*
X751957Y1055236D01*
G37*
%LPD*%
%LPC*%
G36*
X726557Y1055236D02*
X726557Y1055236D01*
X723336Y1056570D01*
X720870Y1059036D01*
X719536Y1062257D01*
X719536Y1065743D01*
X720870Y1068964D01*
X723336Y1071430D01*
X726557Y1072764D01*
X730043Y1072764D01*
X733264Y1071430D01*
X735730Y1068964D01*
X737064Y1065743D01*
X737064Y1062257D01*
X735730Y1059036D01*
X733264Y1056570D01*
X730043Y1055236D01*
X726557Y1055236D01*
G37*
%LPD*%
%LPC*%
G36*
X828157Y1055236D02*
X828157Y1055236D01*
X824936Y1056570D01*
X822470Y1059036D01*
X821136Y1062257D01*
X821136Y1065743D01*
X822470Y1068964D01*
X824936Y1071430D01*
X828157Y1072764D01*
X831643Y1072764D01*
X834864Y1071430D01*
X837330Y1068964D01*
X838664Y1065743D01*
X838664Y1062257D01*
X837330Y1059036D01*
X834864Y1056570D01*
X831643Y1055236D01*
X828157Y1055236D01*
G37*
%LPD*%
%LPC*%
G36*
X802757Y1055236D02*
X802757Y1055236D01*
X799536Y1056570D01*
X797070Y1059036D01*
X795736Y1062257D01*
X795736Y1065743D01*
X797070Y1068964D01*
X799536Y1071430D01*
X802757Y1072764D01*
X806243Y1072764D01*
X809464Y1071430D01*
X811930Y1068964D01*
X813264Y1065743D01*
X813264Y1062257D01*
X811930Y1059036D01*
X809464Y1056570D01*
X806243Y1055236D01*
X802757Y1055236D01*
G37*
%LPD*%
%LPC*%
G36*
X777357Y1055236D02*
X777357Y1055236D01*
X774136Y1056570D01*
X771670Y1059036D01*
X770336Y1062257D01*
X770336Y1065743D01*
X771670Y1068964D01*
X774136Y1071430D01*
X777357Y1072764D01*
X780843Y1072764D01*
X784064Y1071430D01*
X786530Y1068964D01*
X787864Y1065743D01*
X787864Y1062257D01*
X786530Y1059036D01*
X784064Y1056570D01*
X780843Y1055236D01*
X777357Y1055236D01*
G37*
%LPD*%
%LPC*%
G36*
X701157Y1055236D02*
X701157Y1055236D01*
X697936Y1056570D01*
X695470Y1059036D01*
X694136Y1062257D01*
X694136Y1065743D01*
X695470Y1068964D01*
X697936Y1071430D01*
X701157Y1072764D01*
X704643Y1072764D01*
X707864Y1071430D01*
X710330Y1068964D01*
X711664Y1065743D01*
X711664Y1062257D01*
X710330Y1059036D01*
X707864Y1056570D01*
X704643Y1055236D01*
X701157Y1055236D01*
G37*
%LPD*%
%LPC*%
G36*
X650357Y1055236D02*
X650357Y1055236D01*
X647136Y1056570D01*
X644670Y1059036D01*
X643336Y1062257D01*
X643336Y1065743D01*
X644670Y1068964D01*
X647136Y1071430D01*
X650357Y1072764D01*
X653843Y1072764D01*
X657064Y1071430D01*
X659530Y1068964D01*
X660864Y1065743D01*
X660864Y1062257D01*
X659530Y1059036D01*
X657064Y1056570D01*
X653843Y1055236D01*
X650357Y1055236D01*
G37*
%LPD*%
%LPC*%
G36*
X624957Y1055236D02*
X624957Y1055236D01*
X621736Y1056570D01*
X619270Y1059036D01*
X617936Y1062257D01*
X617936Y1065743D01*
X619270Y1068964D01*
X621736Y1071430D01*
X624957Y1072764D01*
X628443Y1072764D01*
X631664Y1071430D01*
X634130Y1068964D01*
X635464Y1065743D01*
X635464Y1062257D01*
X634130Y1059036D01*
X631664Y1056570D01*
X628443Y1055236D01*
X624957Y1055236D01*
G37*
%LPD*%
%LPC*%
G36*
X548757Y826636D02*
X548757Y826636D01*
X545536Y827970D01*
X543070Y830436D01*
X541736Y833657D01*
X541736Y837143D01*
X543070Y840364D01*
X545536Y842830D01*
X548757Y844164D01*
X552243Y844164D01*
X555464Y842830D01*
X557930Y840364D01*
X559264Y837143D01*
X559264Y833657D01*
X557930Y830436D01*
X555464Y827970D01*
X552243Y826636D01*
X548757Y826636D01*
G37*
%LPD*%
%LPC*%
G36*
X777357Y826636D02*
X777357Y826636D01*
X774136Y827970D01*
X771670Y830436D01*
X770336Y833657D01*
X770336Y837143D01*
X771670Y840364D01*
X774136Y842830D01*
X777357Y844164D01*
X780843Y844164D01*
X784064Y842830D01*
X786530Y840364D01*
X787864Y837143D01*
X787864Y833657D01*
X786530Y830436D01*
X784064Y827970D01*
X780843Y826636D01*
X777357Y826636D01*
G37*
%LPD*%
%LPC*%
G36*
X599557Y1055236D02*
X599557Y1055236D01*
X596336Y1056570D01*
X593870Y1059036D01*
X592536Y1062257D01*
X592536Y1065743D01*
X593870Y1068964D01*
X596336Y1071430D01*
X599557Y1072764D01*
X603043Y1072764D01*
X606264Y1071430D01*
X608730Y1068964D01*
X610064Y1065743D01*
X610064Y1062257D01*
X608730Y1059036D01*
X606264Y1056570D01*
X603043Y1055236D01*
X599557Y1055236D01*
G37*
%LPD*%
%LPC*%
G36*
X828157Y826636D02*
X828157Y826636D01*
X824936Y827970D01*
X822470Y830436D01*
X821136Y833657D01*
X821136Y837143D01*
X822470Y840364D01*
X824936Y842830D01*
X828157Y844164D01*
X831643Y844164D01*
X834864Y842830D01*
X837330Y840364D01*
X838664Y837143D01*
X838664Y833657D01*
X837330Y830436D01*
X834864Y827970D01*
X831643Y826636D01*
X828157Y826636D01*
G37*
%LPD*%
%LPC*%
G36*
X853557Y826636D02*
X853557Y826636D01*
X850336Y827970D01*
X847870Y830436D01*
X846536Y833657D01*
X846536Y837143D01*
X847870Y840364D01*
X850336Y842830D01*
X853557Y844164D01*
X857043Y844164D01*
X860264Y842830D01*
X862730Y840364D01*
X864064Y837143D01*
X864064Y833657D01*
X862730Y830436D01*
X860264Y827970D01*
X857043Y826636D01*
X853557Y826636D01*
G37*
%LPD*%
%LPC*%
G36*
X878957Y826636D02*
X878957Y826636D01*
X875736Y827970D01*
X873270Y830436D01*
X871936Y833657D01*
X871936Y837143D01*
X873270Y840364D01*
X875736Y842830D01*
X878957Y844164D01*
X882443Y844164D01*
X885664Y842830D01*
X888130Y840364D01*
X889464Y837143D01*
X889464Y833657D01*
X888130Y830436D01*
X885664Y827970D01*
X882443Y826636D01*
X878957Y826636D01*
G37*
%LPD*%
%LPC*%
G36*
X650357Y826636D02*
X650357Y826636D01*
X647136Y827970D01*
X644670Y830436D01*
X643336Y833657D01*
X643336Y837143D01*
X644670Y840364D01*
X647136Y842830D01*
X650357Y844164D01*
X653843Y844164D01*
X657064Y842830D01*
X659530Y840364D01*
X660864Y837143D01*
X660864Y833657D01*
X659530Y830436D01*
X657064Y827970D01*
X653843Y826636D01*
X650357Y826636D01*
G37*
%LPD*%
%LPC*%
G36*
X624957Y826636D02*
X624957Y826636D01*
X621736Y827970D01*
X619270Y830436D01*
X617936Y833657D01*
X617936Y837143D01*
X619270Y840364D01*
X621736Y842830D01*
X624957Y844164D01*
X628443Y844164D01*
X631664Y842830D01*
X634130Y840364D01*
X635464Y837143D01*
X635464Y833657D01*
X634130Y830436D01*
X631664Y827970D01*
X628443Y826636D01*
X624957Y826636D01*
G37*
%LPD*%
%LPC*%
G36*
X701157Y826636D02*
X701157Y826636D01*
X697936Y827970D01*
X695470Y830436D01*
X694136Y833657D01*
X694136Y837143D01*
X695470Y840364D01*
X697936Y842830D01*
X701157Y844164D01*
X704643Y844164D01*
X707864Y842830D01*
X710330Y840364D01*
X711664Y837143D01*
X711664Y833657D01*
X710330Y830436D01*
X707864Y827970D01*
X704643Y826636D01*
X701157Y826636D01*
G37*
%LPD*%
%LPC*%
G36*
X904357Y826636D02*
X904357Y826636D01*
X901136Y827970D01*
X898670Y830436D01*
X897336Y833657D01*
X897336Y837143D01*
X898670Y840364D01*
X901136Y842830D01*
X904357Y844164D01*
X907843Y844164D01*
X911064Y842830D01*
X913530Y840364D01*
X914864Y837143D01*
X914864Y833657D01*
X913530Y830436D01*
X911064Y827970D01*
X907843Y826636D01*
X904357Y826636D01*
G37*
%LPD*%
%LPC*%
G36*
X853557Y801236D02*
X853557Y801236D01*
X850336Y802570D01*
X847870Y805036D01*
X846536Y808257D01*
X846536Y811743D01*
X847870Y814964D01*
X850336Y817430D01*
X853557Y818764D01*
X857043Y818764D01*
X860264Y817430D01*
X862730Y814964D01*
X864064Y811743D01*
X864064Y808257D01*
X862730Y805036D01*
X860264Y802570D01*
X857043Y801236D01*
X853557Y801236D01*
G37*
%LPD*%
%LPC*%
G36*
X599557Y826636D02*
X599557Y826636D01*
X596336Y827970D01*
X593870Y830436D01*
X592536Y833657D01*
X592536Y837143D01*
X593870Y840364D01*
X596336Y842830D01*
X599557Y844164D01*
X603043Y844164D01*
X606264Y842830D01*
X608730Y840364D01*
X610064Y837143D01*
X610064Y833657D01*
X608730Y830436D01*
X606264Y827970D01*
X603043Y826636D01*
X599557Y826636D01*
G37*
%LPD*%
%LPC*%
G36*
X523357Y801236D02*
X523357Y801236D01*
X520136Y802570D01*
X517670Y805036D01*
X516336Y808257D01*
X516336Y811743D01*
X517670Y814964D01*
X520136Y817430D01*
X523357Y818764D01*
X526843Y818764D01*
X530064Y817430D01*
X532530Y814964D01*
X533864Y811743D01*
X533864Y808257D01*
X532530Y805036D01*
X530064Y802570D01*
X526843Y801236D01*
X523357Y801236D01*
G37*
%LPD*%
%LPC*%
G36*
X802757Y801236D02*
X802757Y801236D01*
X799536Y802570D01*
X797070Y805036D01*
X795736Y808257D01*
X795736Y811743D01*
X797070Y814964D01*
X799536Y817430D01*
X802757Y818764D01*
X806243Y818764D01*
X809464Y817430D01*
X811930Y814964D01*
X813264Y811743D01*
X813264Y808257D01*
X811930Y805036D01*
X809464Y802570D01*
X806243Y801236D01*
X802757Y801236D01*
G37*
%LPD*%
%LPC*%
G36*
X523357Y826636D02*
X523357Y826636D01*
X520136Y827970D01*
X517670Y830436D01*
X516336Y833657D01*
X516336Y837143D01*
X517670Y840364D01*
X520136Y842830D01*
X523357Y844164D01*
X526843Y844164D01*
X530064Y842830D01*
X532530Y840364D01*
X533864Y837143D01*
X533864Y833657D01*
X532530Y830436D01*
X530064Y827970D01*
X526843Y826636D01*
X523357Y826636D01*
G37*
%LPD*%
%LPC*%
G36*
X878957Y801236D02*
X878957Y801236D01*
X875736Y802570D01*
X873270Y805036D01*
X871936Y808257D01*
X871936Y811743D01*
X873270Y814964D01*
X875736Y817430D01*
X878957Y818764D01*
X882443Y818764D01*
X885664Y817430D01*
X888130Y814964D01*
X889464Y811743D01*
X889464Y808257D01*
X888130Y805036D01*
X885664Y802570D01*
X882443Y801236D01*
X878957Y801236D01*
G37*
%LPD*%
%LPC*%
G36*
X828157Y801236D02*
X828157Y801236D01*
X824936Y802570D01*
X822470Y805036D01*
X821136Y808257D01*
X821136Y811743D01*
X822470Y814964D01*
X824936Y817430D01*
X828157Y818764D01*
X831643Y818764D01*
X834864Y817430D01*
X837330Y814964D01*
X838664Y811743D01*
X838664Y808257D01*
X837330Y805036D01*
X834864Y802570D01*
X831643Y801236D01*
X828157Y801236D01*
G37*
%LPD*%
%LPC*%
G36*
X955157Y801236D02*
X955157Y801236D01*
X951936Y802570D01*
X949470Y805036D01*
X948136Y808257D01*
X948136Y811743D01*
X949470Y814964D01*
X951936Y817430D01*
X955157Y818764D01*
X958643Y818764D01*
X961864Y817430D01*
X964330Y814964D01*
X965664Y811743D01*
X965664Y808257D01*
X964330Y805036D01*
X961864Y802570D01*
X958643Y801236D01*
X955157Y801236D01*
G37*
%LPD*%
%LPC*%
G36*
X929757Y801236D02*
X929757Y801236D01*
X926536Y802570D01*
X924070Y805036D01*
X922736Y808257D01*
X922736Y811743D01*
X924070Y814964D01*
X926536Y817430D01*
X929757Y818764D01*
X933243Y818764D01*
X936464Y817430D01*
X938930Y814964D01*
X940264Y811743D01*
X940264Y808257D01*
X938930Y805036D01*
X936464Y802570D01*
X933243Y801236D01*
X929757Y801236D01*
G37*
%LPD*%
%LPC*%
G36*
X904357Y801236D02*
X904357Y801236D01*
X901136Y802570D01*
X898670Y805036D01*
X897336Y808257D01*
X897336Y811743D01*
X898670Y814964D01*
X901136Y817430D01*
X904357Y818764D01*
X907843Y818764D01*
X911064Y817430D01*
X913530Y814964D01*
X914864Y811743D01*
X914864Y808257D01*
X913530Y805036D01*
X911064Y802570D01*
X907843Y801236D01*
X904357Y801236D01*
G37*
%LPD*%
%LPC*%
G36*
X548757Y801236D02*
X548757Y801236D01*
X545536Y802570D01*
X543070Y805036D01*
X541736Y808257D01*
X541736Y811743D01*
X543070Y814964D01*
X545536Y817430D01*
X548757Y818764D01*
X552243Y818764D01*
X555464Y817430D01*
X557930Y814964D01*
X559264Y811743D01*
X559264Y808257D01*
X557930Y805036D01*
X555464Y802570D01*
X552243Y801236D01*
X548757Y801236D01*
G37*
%LPD*%
%LPC*%
G36*
X929757Y826636D02*
X929757Y826636D01*
X926536Y827970D01*
X924070Y830436D01*
X922736Y833657D01*
X922736Y837143D01*
X924070Y840364D01*
X926536Y842830D01*
X929757Y844164D01*
X933243Y844164D01*
X936464Y842830D01*
X938930Y840364D01*
X940264Y837143D01*
X940264Y833657D01*
X938930Y830436D01*
X936464Y827970D01*
X933243Y826636D01*
X929757Y826636D01*
G37*
%LPD*%
%LPC*%
G36*
X548757Y1055236D02*
X548757Y1055236D01*
X545536Y1056570D01*
X543070Y1059036D01*
X541736Y1062257D01*
X541736Y1065743D01*
X543070Y1068964D01*
X545536Y1071430D01*
X548757Y1072764D01*
X552243Y1072764D01*
X555464Y1071430D01*
X557930Y1068964D01*
X559264Y1065743D01*
X559264Y1062257D01*
X557930Y1059036D01*
X555464Y1056570D01*
X552243Y1055236D01*
X548757Y1055236D01*
G37*
%LPD*%
%LPC*%
G36*
X955157Y826636D02*
X955157Y826636D01*
X951936Y827970D01*
X949470Y830436D01*
X948136Y833657D01*
X948136Y837143D01*
X949470Y840364D01*
X951936Y842830D01*
X955157Y844164D01*
X958643Y844164D01*
X961864Y842830D01*
X964330Y840364D01*
X965664Y837143D01*
X965664Y833657D01*
X964330Y830436D01*
X961864Y827970D01*
X958643Y826636D01*
X955157Y826636D01*
G37*
%LPD*%
%LPC*%
G36*
X574157Y826636D02*
X574157Y826636D01*
X570936Y827970D01*
X568470Y830436D01*
X567136Y833657D01*
X567136Y837143D01*
X568470Y840364D01*
X570936Y842830D01*
X574157Y844164D01*
X577643Y844164D01*
X580864Y842830D01*
X583330Y840364D01*
X584664Y837143D01*
X584664Y833657D01*
X583330Y830436D01*
X580864Y827970D01*
X577643Y826636D01*
X574157Y826636D01*
G37*
%LPD*%
%LPC*%
G36*
X675757Y826636D02*
X675757Y826636D01*
X672536Y827970D01*
X670070Y830436D01*
X668736Y833657D01*
X668736Y837143D01*
X670070Y840364D01*
X672536Y842830D01*
X675757Y844164D01*
X679243Y844164D01*
X682464Y842830D01*
X684930Y840364D01*
X686264Y837143D01*
X686264Y833657D01*
X684930Y830436D01*
X682464Y827970D01*
X679243Y826636D01*
X675757Y826636D01*
G37*
%LPD*%
%LPC*%
G36*
X523357Y1055236D02*
X523357Y1055236D01*
X520136Y1056570D01*
X517670Y1059036D01*
X516336Y1062257D01*
X516336Y1065743D01*
X517670Y1068964D01*
X520136Y1071430D01*
X523357Y1072764D01*
X526843Y1072764D01*
X530064Y1071430D01*
X532530Y1068964D01*
X533864Y1065743D01*
X533864Y1062257D01*
X532530Y1059036D01*
X530064Y1056570D01*
X526843Y1055236D01*
X523357Y1055236D01*
G37*
%LPD*%
%LPC*%
G36*
X574157Y1055236D02*
X574157Y1055236D01*
X570936Y1056570D01*
X568470Y1059036D01*
X567136Y1062257D01*
X567136Y1065743D01*
X568470Y1068964D01*
X570936Y1071430D01*
X574157Y1072764D01*
X577643Y1072764D01*
X580864Y1071430D01*
X583330Y1068964D01*
X584664Y1065743D01*
X584664Y1062257D01*
X583330Y1059036D01*
X580864Y1056570D01*
X577643Y1055236D01*
X574157Y1055236D01*
G37*
%LPD*%
%LPC*%
G36*
X650357Y801236D02*
X650357Y801236D01*
X647136Y802570D01*
X644670Y805036D01*
X643336Y808257D01*
X643336Y811743D01*
X644670Y814964D01*
X647136Y817430D01*
X650357Y818764D01*
X653843Y818764D01*
X657064Y817430D01*
X659530Y814964D01*
X660864Y811743D01*
X660864Y808257D01*
X659530Y805036D01*
X657064Y802570D01*
X653843Y801236D01*
X650357Y801236D01*
G37*
%LPD*%
%LPC*%
G36*
X624957Y801236D02*
X624957Y801236D01*
X621736Y802570D01*
X619270Y805036D01*
X617936Y808257D01*
X617936Y811743D01*
X619270Y814964D01*
X621736Y817430D01*
X624957Y818764D01*
X628443Y818764D01*
X631664Y817430D01*
X634130Y814964D01*
X635464Y811743D01*
X635464Y808257D01*
X634130Y805036D01*
X631664Y802570D01*
X628443Y801236D01*
X624957Y801236D01*
G37*
%LPD*%
%LPC*%
G36*
X599557Y801236D02*
X599557Y801236D01*
X596336Y802570D01*
X593870Y805036D01*
X592536Y808257D01*
X592536Y811743D01*
X593870Y814964D01*
X596336Y817430D01*
X599557Y818764D01*
X603043Y818764D01*
X606264Y817430D01*
X608730Y814964D01*
X610064Y811743D01*
X610064Y808257D01*
X608730Y805036D01*
X606264Y802570D01*
X603043Y801236D01*
X599557Y801236D01*
G37*
%LPD*%
%LPC*%
G36*
X847248Y535431D02*
X847248Y535431D01*
X845194Y536282D01*
X843622Y537854D01*
X842771Y539908D01*
X842771Y542132D01*
X843622Y544186D01*
X844639Y545203D01*
X844712Y545297D01*
X844791Y545386D01*
X844809Y545422D01*
X844834Y545454D01*
X844881Y545563D01*
X844935Y545669D01*
X844944Y545708D01*
X844960Y545746D01*
X844979Y545863D01*
X845005Y545979D01*
X845004Y546020D01*
X845010Y546060D01*
X844999Y546178D01*
X844995Y546297D01*
X844984Y546336D01*
X844980Y546376D01*
X844940Y546488D01*
X844907Y546603D01*
X844886Y546638D01*
X844873Y546676D01*
X844806Y546774D01*
X844745Y546877D01*
X844706Y546922D01*
X844694Y546939D01*
X844679Y546952D01*
X844639Y546998D01*
X843622Y548014D01*
X842771Y550068D01*
X842771Y552292D01*
X843622Y554346D01*
X845194Y555918D01*
X847248Y556769D01*
X849472Y556769D01*
X851526Y555918D01*
X853098Y554346D01*
X853949Y552292D01*
X853949Y550068D01*
X853098Y548014D01*
X852081Y546998D01*
X852008Y546904D01*
X851929Y546814D01*
X851911Y546778D01*
X851886Y546746D01*
X851839Y546637D01*
X851785Y546531D01*
X851776Y546492D01*
X851760Y546454D01*
X851741Y546337D01*
X851715Y546221D01*
X851716Y546180D01*
X851710Y546140D01*
X851721Y546022D01*
X851725Y545903D01*
X851736Y545864D01*
X851740Y545824D01*
X851780Y545711D01*
X851813Y545597D01*
X851834Y545563D01*
X851847Y545524D01*
X851914Y545426D01*
X851975Y545323D01*
X852015Y545278D01*
X852026Y545261D01*
X852041Y545248D01*
X852081Y545203D01*
X853098Y544186D01*
X853949Y542132D01*
X853949Y539908D01*
X853098Y537854D01*
X851526Y536282D01*
X849472Y535431D01*
X847248Y535431D01*
G37*
%LPD*%
%LPC*%
G36*
X908208Y1137411D02*
X908208Y1137411D01*
X906154Y1138262D01*
X904582Y1139834D01*
X903731Y1141888D01*
X903731Y1144112D01*
X904582Y1146166D01*
X906154Y1147738D01*
X908208Y1148589D01*
X910432Y1148589D01*
X912486Y1147738D01*
X914058Y1146166D01*
X914909Y1144112D01*
X914909Y1141888D01*
X914058Y1139834D01*
X912486Y1138262D01*
X910432Y1137411D01*
X908208Y1137411D01*
G37*
%LPD*%
%LPC*%
G36*
X910748Y946911D02*
X910748Y946911D01*
X908694Y947762D01*
X907122Y949334D01*
X906271Y951388D01*
X906271Y953612D01*
X907122Y955666D01*
X908694Y957238D01*
X910748Y958089D01*
X912972Y958089D01*
X915026Y957238D01*
X916598Y955666D01*
X917449Y953612D01*
X917449Y951388D01*
X916598Y949334D01*
X915026Y947762D01*
X912972Y946911D01*
X910748Y946911D01*
G37*
%LPD*%
%LPC*%
G36*
X890450Y789410D02*
X890450Y789410D01*
X888396Y790260D01*
X886824Y791833D01*
X885973Y793887D01*
X885973Y796110D01*
X886824Y798164D01*
X888396Y799736D01*
X890450Y800587D01*
X892673Y800587D01*
X894727Y799736D01*
X896300Y798164D01*
X897150Y796110D01*
X897150Y793887D01*
X896300Y791833D01*
X894727Y790260D01*
X892673Y789410D01*
X890450Y789410D01*
G37*
%LPD*%
%LPC*%
G36*
X501808Y776731D02*
X501808Y776731D01*
X499754Y777582D01*
X498182Y779154D01*
X497331Y781208D01*
X497331Y783432D01*
X498182Y785486D01*
X499754Y787058D01*
X501808Y787909D01*
X504032Y787909D01*
X506086Y787058D01*
X507658Y785486D01*
X508509Y783432D01*
X508509Y781208D01*
X507658Y779154D01*
X506086Y777582D01*
X504032Y776731D01*
X501808Y776731D01*
G37*
%LPD*%
%LPC*%
G36*
X496728Y70611D02*
X496728Y70611D01*
X494674Y71462D01*
X493102Y73034D01*
X492251Y75088D01*
X492251Y77312D01*
X493102Y79366D01*
X494674Y80938D01*
X496728Y81789D01*
X498952Y81789D01*
X501006Y80938D01*
X502578Y79366D01*
X503429Y77312D01*
X503429Y75088D01*
X502578Y73034D01*
X501006Y71462D01*
X498952Y70611D01*
X496728Y70611D01*
G37*
%LPD*%
%LPC*%
G36*
X908208Y756411D02*
X908208Y756411D01*
X906154Y757262D01*
X904582Y758834D01*
X903731Y760888D01*
X903731Y763112D01*
X904582Y765166D01*
X906154Y766738D01*
X908208Y767589D01*
X910432Y767589D01*
X912486Y766738D01*
X914058Y765166D01*
X914909Y763112D01*
X914909Y760888D01*
X914058Y758834D01*
X912486Y757262D01*
X910432Y756411D01*
X908208Y756411D01*
G37*
%LPD*%
%LPC*%
G36*
X205699Y421599D02*
X205699Y421599D01*
X205699Y428320D01*
X206862Y427942D01*
X208201Y427260D01*
X209415Y426377D01*
X210477Y425315D01*
X211360Y424101D01*
X212042Y422762D01*
X212420Y421599D01*
X205699Y421599D01*
G37*
%LPD*%
%LPC*%
G36*
X193980Y421599D02*
X193980Y421599D01*
X194358Y422762D01*
X195040Y424101D01*
X195923Y425315D01*
X196985Y426377D01*
X198199Y427260D01*
X199538Y427942D01*
X200701Y428320D01*
X200701Y421599D01*
X193980Y421599D01*
G37*
%LPD*%
%LPC*%
G36*
X205699Y416601D02*
X205699Y416601D01*
X212420Y416601D01*
X212042Y415438D01*
X211360Y414099D01*
X210477Y412885D01*
X209415Y411823D01*
X208201Y410940D01*
X206862Y410258D01*
X205699Y409880D01*
X205699Y416601D01*
G37*
%LPD*%
%LPC*%
G36*
X199538Y410258D02*
X199538Y410258D01*
X198199Y410940D01*
X196985Y411823D01*
X195923Y412885D01*
X195040Y414099D01*
X194358Y415438D01*
X193980Y416601D01*
X200701Y416601D01*
X200701Y409880D01*
X199538Y410258D01*
G37*
%LPD*%
%LPC*%
G36*
X679722Y1066222D02*
X679722Y1066222D01*
X679722Y1072493D01*
X680056Y1072427D01*
X681651Y1071766D01*
X683087Y1070807D01*
X684307Y1069587D01*
X685266Y1068151D01*
X685927Y1066556D01*
X685993Y1066222D01*
X679722Y1066222D01*
G37*
%LPD*%
%LPC*%
G36*
X806722Y837622D02*
X806722Y837622D01*
X806722Y843893D01*
X807056Y843827D01*
X808651Y843166D01*
X810087Y842207D01*
X811307Y840987D01*
X812266Y839551D01*
X812927Y837956D01*
X812993Y837622D01*
X806722Y837622D01*
G37*
%LPD*%
%LPC*%
G36*
X679722Y1061778D02*
X679722Y1061778D01*
X685993Y1061778D01*
X685927Y1061444D01*
X685266Y1059849D01*
X684307Y1058413D01*
X683087Y1057193D01*
X681651Y1056234D01*
X680056Y1055573D01*
X679722Y1055507D01*
X679722Y1061778D01*
G37*
%LPD*%
%LPC*%
G36*
X669007Y1066222D02*
X669007Y1066222D01*
X669073Y1066556D01*
X669734Y1068151D01*
X670693Y1069587D01*
X671913Y1070807D01*
X673349Y1071766D01*
X674944Y1072427D01*
X675278Y1072493D01*
X675278Y1066222D01*
X669007Y1066222D01*
G37*
%LPD*%
%LPC*%
G36*
X796007Y837622D02*
X796007Y837622D01*
X796073Y837956D01*
X796734Y839551D01*
X797693Y840987D01*
X798913Y842207D01*
X800349Y843166D01*
X801944Y843827D01*
X802278Y843893D01*
X802278Y837622D01*
X796007Y837622D01*
G37*
%LPD*%
%LPC*%
G36*
X806722Y833178D02*
X806722Y833178D01*
X812993Y833178D01*
X812927Y832844D01*
X812266Y831249D01*
X811307Y829813D01*
X810087Y828593D01*
X808651Y827634D01*
X807056Y826973D01*
X806722Y826907D01*
X806722Y833178D01*
G37*
%LPD*%
%LPC*%
G36*
X674944Y1055573D02*
X674944Y1055573D01*
X673349Y1056234D01*
X671913Y1057193D01*
X670693Y1058413D01*
X669734Y1059849D01*
X669073Y1061444D01*
X669007Y1061778D01*
X675278Y1061778D01*
X675278Y1055507D01*
X674944Y1055573D01*
G37*
%LPD*%
%LPC*%
G36*
X801944Y826973D02*
X801944Y826973D01*
X800349Y827634D01*
X798913Y828593D01*
X797693Y829813D01*
X796734Y831249D01*
X796073Y832844D01*
X796007Y833178D01*
X802278Y833178D01*
X802278Y826907D01*
X801944Y826973D01*
G37*
%LPD*%
D10*
X876300Y584200D03*
X876300Y559200D03*
X876300Y539200D03*
X876300Y514200D03*
D11*
X903400Y614900D03*
X903400Y483500D03*
D12*
X152400Y1181100D03*
X177800Y1181100D03*
X203200Y1181100D03*
X228600Y1181100D03*
X254000Y1181100D03*
X279400Y1181100D03*
X304800Y1181100D03*
X330200Y1181100D03*
X355600Y1181100D03*
X381000Y1181100D03*
X406400Y1181100D03*
X431800Y1181100D03*
X457200Y1181100D03*
X482600Y1181100D03*
X508000Y1181100D03*
X533400Y1181100D03*
X558800Y1181100D03*
X584200Y1181100D03*
X609600Y1181100D03*
X635000Y1181100D03*
X152400Y419100D03*
X177800Y419100D03*
X203200Y419100D03*
X228600Y419100D03*
X254000Y419100D03*
X279400Y419100D03*
X304800Y419100D03*
X330200Y419100D03*
X355600Y419100D03*
X381000Y419100D03*
X406400Y419100D03*
X431800Y419100D03*
X457200Y419100D03*
X482600Y419100D03*
X508000Y419100D03*
X533400Y419100D03*
X558800Y419100D03*
X584200Y419100D03*
X609600Y419100D03*
X635000Y419100D03*
D13*
X107950Y419100D03*
X679450Y419100D03*
X107950Y1181100D03*
X679450Y1181100D03*
D14*
X956900Y810000D03*
X956900Y835400D03*
X931500Y810000D03*
X931500Y835400D03*
X906100Y810000D03*
X906100Y835400D03*
X880700Y810000D03*
X880700Y835400D03*
X855300Y810000D03*
X855300Y835400D03*
X829900Y810000D03*
X829900Y835400D03*
X804500Y810000D03*
X804500Y835400D03*
X779100Y810000D03*
X779100Y835400D03*
X753700Y810000D03*
X753700Y835400D03*
X728300Y810000D03*
X728300Y835400D03*
X702900Y810000D03*
X702900Y835400D03*
X677500Y810000D03*
X677500Y835400D03*
X652100Y810000D03*
X652100Y835400D03*
X626700Y810000D03*
X626700Y835400D03*
X601300Y810000D03*
X601300Y835400D03*
X575900Y810000D03*
X575900Y835400D03*
X550500Y810000D03*
X550500Y835400D03*
X525100Y810000D03*
X525100Y835400D03*
X956900Y1064000D03*
X956900Y1089400D03*
X931500Y1064000D03*
X931500Y1089400D03*
X906100Y1064000D03*
X906100Y1089400D03*
X880700Y1064000D03*
X880700Y1089400D03*
X855300Y1064000D03*
X855300Y1089400D03*
X829900Y1064000D03*
X829900Y1089400D03*
X804500Y1064000D03*
X804500Y1089400D03*
X779100Y1064000D03*
X779100Y1089400D03*
X753700Y1064000D03*
X753700Y1089400D03*
X728300Y1064000D03*
X728300Y1089400D03*
X702900Y1064000D03*
X702900Y1089400D03*
X677500Y1064000D03*
X677500Y1089400D03*
X652100Y1064000D03*
X652100Y1089400D03*
X626700Y1064000D03*
X626700Y1089400D03*
X601300Y1064000D03*
X601300Y1089400D03*
X575900Y1064000D03*
X575900Y1089400D03*
X550500Y1064000D03*
X550500Y1089400D03*
X525100Y1064000D03*
X525100Y1089400D03*
D15*
X253000Y215500D03*
X253000Y165500D03*
X128000Y165500D03*
X128000Y215500D03*
X888000Y215500D03*
X888000Y165500D03*
X763000Y165500D03*
X763000Y215500D03*
D12*
X546500Y127000D03*
X571500Y127000D03*
X596500Y127000D03*
X356000Y127000D03*
X381000Y127000D03*
X406000Y127000D03*
D16*
X38100Y1231900D03*
X38100Y38100D03*
X977900Y38100D03*
X977900Y1231900D03*
D17*
X909320Y1143000D03*
X911860Y952500D03*
X497840Y76200D03*
X909320Y762000D03*
X81280Y228600D03*
X731520Y203200D03*
X502920Y782320D03*
X741680Y833120D03*
X764540Y805428D03*
X739140Y810260D03*
X690880Y807720D03*
X891562Y794998D03*
X848360Y551180D03*
X848360Y541020D03*
M02*
