G04 EAGLE Gerber RS-274X export*
G75*
%MOMM*%
%FSLAX34Y34*%
%LPD*%
%INTop Copper*%
%IPPOS*%
%AMOC8*
5,1,8,0,0,1.08239X$1,22.5*%
G01*
%ADD10R,0.800000X0.800000*%
%ADD11R,1.288000X1.288000*%
%ADD12C,1.288000*%
%ADD13C,3.220000*%
%ADD14R,1.676400X1.676400*%
%ADD15C,1.676400*%
%ADD16C,4.016000*%
%ADD17R,1.524000X1.524000*%
%ADD18P,1.649562X8X202.500000*%
%ADD19C,1.960000*%
%ADD20C,1.400000*%
%ADD21R,0.949959X1.031241*%
%ADD22C,4.445000*%
%ADD23C,1.016000*%
%ADD24R,1.031241X0.949959*%
%ADD25C,0.254000*%
%ADD26C,0.609600*%

G36*
X1013444Y1266308D02*
X1013444Y1266308D01*
X1013437Y1266427D01*
X1013424Y1266465D01*
X1013419Y1266506D01*
X1013376Y1266616D01*
X1013339Y1266729D01*
X1013317Y1266764D01*
X1013302Y1266801D01*
X1013233Y1266897D01*
X1013169Y1266998D01*
X1013139Y1267026D01*
X1013116Y1267059D01*
X1013024Y1267135D01*
X1012937Y1267216D01*
X1012902Y1267236D01*
X1012871Y1267261D01*
X1012763Y1267312D01*
X1012659Y1267370D01*
X1012619Y1267380D01*
X1012583Y1267397D01*
X1012466Y1267419D01*
X1012351Y1267449D01*
X1012291Y1267453D01*
X1012271Y1267457D01*
X1012250Y1267455D01*
X1012190Y1267459D01*
X3810Y1267459D01*
X3692Y1267444D01*
X3573Y1267437D01*
X3535Y1267424D01*
X3494Y1267419D01*
X3384Y1267376D01*
X3271Y1267339D01*
X3236Y1267317D01*
X3199Y1267302D01*
X3103Y1267233D01*
X3002Y1267169D01*
X2974Y1267139D01*
X2941Y1267116D01*
X2865Y1267024D01*
X2784Y1266937D01*
X2764Y1266902D01*
X2739Y1266871D01*
X2688Y1266763D01*
X2630Y1266659D01*
X2620Y1266619D01*
X2603Y1266583D01*
X2581Y1266466D01*
X2551Y1266351D01*
X2547Y1266291D01*
X2543Y1266271D01*
X2545Y1266250D01*
X2541Y1266190D01*
X2541Y3810D01*
X2556Y3692D01*
X2563Y3573D01*
X2576Y3535D01*
X2581Y3494D01*
X2624Y3384D01*
X2661Y3271D01*
X2683Y3236D01*
X2698Y3199D01*
X2767Y3103D01*
X2831Y3002D01*
X2861Y2974D01*
X2884Y2941D01*
X2976Y2865D01*
X3063Y2784D01*
X3098Y2764D01*
X3129Y2739D01*
X3237Y2688D01*
X3341Y2630D01*
X3381Y2620D01*
X3417Y2603D01*
X3534Y2581D01*
X3649Y2551D01*
X3709Y2547D01*
X3729Y2543D01*
X3750Y2545D01*
X3810Y2541D01*
X1012190Y2541D01*
X1012308Y2556D01*
X1012427Y2563D01*
X1012465Y2576D01*
X1012506Y2581D01*
X1012616Y2624D01*
X1012729Y2661D01*
X1012764Y2683D01*
X1012801Y2698D01*
X1012897Y2767D01*
X1012998Y2831D01*
X1013026Y2861D01*
X1013059Y2884D01*
X1013135Y2976D01*
X1013216Y3063D01*
X1013236Y3098D01*
X1013261Y3129D01*
X1013312Y3237D01*
X1013370Y3341D01*
X1013380Y3381D01*
X1013397Y3417D01*
X1013419Y3534D01*
X1013449Y3649D01*
X1013453Y3709D01*
X1013457Y3729D01*
X1013455Y3750D01*
X1013459Y3810D01*
X1013459Y1266190D01*
X1013444Y1266308D01*
G37*
%LPC*%
G36*
X102126Y1217931D02*
X102126Y1217931D01*
X913874Y1217931D01*
X963931Y1167874D01*
X963931Y1097264D01*
X963943Y1097166D01*
X963946Y1097067D01*
X963963Y1097009D01*
X963971Y1096949D01*
X964007Y1096857D01*
X964035Y1096762D01*
X964065Y1096710D01*
X964088Y1096653D01*
X964146Y1096573D01*
X964196Y1096488D01*
X964262Y1096412D01*
X964274Y1096396D01*
X964284Y1096388D01*
X964303Y1096367D01*
X967061Y1093609D01*
X967061Y1085191D01*
X964303Y1082433D01*
X964242Y1082355D01*
X964174Y1082283D01*
X964145Y1082230D01*
X964108Y1082182D01*
X964068Y1082091D01*
X964020Y1082004D01*
X964005Y1081946D01*
X963981Y1081890D01*
X963966Y1081792D01*
X963941Y1081696D01*
X963935Y1081596D01*
X963931Y1081576D01*
X963933Y1081564D01*
X963931Y1081536D01*
X963931Y1075430D01*
X963946Y1075312D01*
X963953Y1075193D01*
X963966Y1075155D01*
X963971Y1075114D01*
X964014Y1075004D01*
X964051Y1074891D01*
X964073Y1074856D01*
X964088Y1074819D01*
X964158Y1074723D01*
X964221Y1074622D01*
X964251Y1074594D01*
X964274Y1074561D01*
X964366Y1074485D01*
X964453Y1074404D01*
X964488Y1074384D01*
X964519Y1074359D01*
X964627Y1074308D01*
X964731Y1074250D01*
X964771Y1074240D01*
X964807Y1074223D01*
X964924Y1074201D01*
X965039Y1074171D01*
X965100Y1074167D01*
X965120Y1074163D01*
X965140Y1074165D01*
X965200Y1074161D01*
X965572Y1074161D01*
X967061Y1072672D01*
X967061Y1055328D01*
X965572Y1053839D01*
X965200Y1053839D01*
X965082Y1053824D01*
X964963Y1053817D01*
X964925Y1053804D01*
X964884Y1053799D01*
X964774Y1053756D01*
X964661Y1053719D01*
X964626Y1053697D01*
X964589Y1053682D01*
X964493Y1053613D01*
X964392Y1053549D01*
X964364Y1053519D01*
X964331Y1053496D01*
X964256Y1053404D01*
X964174Y1053317D01*
X964154Y1053282D01*
X964129Y1053251D01*
X964078Y1053143D01*
X964020Y1053039D01*
X964010Y1052999D01*
X963993Y1052963D01*
X963971Y1052846D01*
X963941Y1052731D01*
X963937Y1052671D01*
X963933Y1052651D01*
X963935Y1052630D01*
X963931Y1052570D01*
X963931Y859684D01*
X963943Y859586D01*
X963946Y859487D01*
X963963Y859429D01*
X963971Y859369D01*
X964007Y859277D01*
X964035Y859181D01*
X964065Y859129D01*
X964088Y859073D01*
X964146Y858993D01*
X964196Y858908D01*
X964262Y858832D01*
X964274Y858816D01*
X964284Y858808D01*
X964303Y858787D01*
X972141Y850948D01*
X972141Y829087D01*
X965817Y822763D01*
X965291Y822237D01*
X965218Y822143D01*
X965139Y822054D01*
X965121Y822018D01*
X965096Y821986D01*
X965049Y821877D01*
X964995Y821771D01*
X964986Y821731D01*
X964970Y821694D01*
X964951Y821576D01*
X964925Y821460D01*
X964926Y821420D01*
X964920Y821380D01*
X964931Y821261D01*
X964935Y821142D01*
X964946Y821104D01*
X964950Y821063D01*
X964990Y820951D01*
X965023Y820837D01*
X965043Y820802D01*
X965057Y820764D01*
X965124Y820666D01*
X965185Y820563D01*
X965224Y820518D01*
X965236Y820501D01*
X965251Y820487D01*
X965291Y820442D01*
X967061Y818672D01*
X967061Y801328D01*
X965572Y799839D01*
X965200Y799839D01*
X965082Y799824D01*
X964963Y799817D01*
X964925Y799804D01*
X964884Y799799D01*
X964774Y799756D01*
X964661Y799719D01*
X964626Y799697D01*
X964589Y799682D01*
X964493Y799613D01*
X964392Y799549D01*
X964364Y799519D01*
X964331Y799496D01*
X964256Y799404D01*
X964174Y799317D01*
X964154Y799282D01*
X964129Y799251D01*
X964078Y799143D01*
X964020Y799039D01*
X964010Y798999D01*
X963993Y798963D01*
X963971Y798846D01*
X963941Y798731D01*
X963937Y798671D01*
X963933Y798651D01*
X963935Y798630D01*
X963931Y798570D01*
X963931Y636269D01*
X904240Y636269D01*
X904122Y636254D01*
X904003Y636247D01*
X903965Y636234D01*
X903924Y636229D01*
X903814Y636186D01*
X903701Y636149D01*
X903666Y636127D01*
X903629Y636112D01*
X903533Y636043D01*
X903432Y635979D01*
X903404Y635949D01*
X903371Y635926D01*
X903296Y635834D01*
X903214Y635747D01*
X903194Y635712D01*
X903169Y635681D01*
X903118Y635573D01*
X903060Y635469D01*
X903050Y635429D01*
X903033Y635393D01*
X903011Y635276D01*
X902981Y635161D01*
X902977Y635101D01*
X902973Y635081D01*
X902975Y635060D01*
X902971Y635000D01*
X902971Y616170D01*
X902986Y616052D01*
X902993Y615933D01*
X903006Y615895D01*
X903011Y615855D01*
X903054Y615744D01*
X903091Y615631D01*
X903113Y615597D01*
X903128Y615559D01*
X903198Y615463D01*
X903261Y615362D01*
X903291Y615334D01*
X903314Y615302D01*
X903401Y615230D01*
X903401Y614577D01*
X903371Y614555D01*
X903296Y614464D01*
X903214Y614377D01*
X903194Y614342D01*
X903169Y614310D01*
X903118Y614203D01*
X903060Y614098D01*
X903050Y614059D01*
X903033Y614023D01*
X903011Y613906D01*
X902981Y613791D01*
X902977Y613730D01*
X902973Y613710D01*
X902975Y613690D01*
X902971Y613630D01*
X902971Y484770D01*
X902986Y484652D01*
X902993Y484533D01*
X903006Y484495D01*
X903011Y484455D01*
X903054Y484344D01*
X903091Y484231D01*
X903113Y484197D01*
X903128Y484159D01*
X903198Y484063D01*
X903261Y483962D01*
X903291Y483934D01*
X903314Y483902D01*
X903401Y483830D01*
X903401Y483177D01*
X903371Y483155D01*
X903296Y483064D01*
X903214Y482977D01*
X903194Y482942D01*
X903169Y482910D01*
X903118Y482803D01*
X903060Y482698D01*
X903050Y482659D01*
X903033Y482623D01*
X903011Y482506D01*
X902981Y482391D01*
X902977Y482330D01*
X902973Y482310D01*
X902975Y482290D01*
X902971Y482230D01*
X902971Y457200D01*
X902986Y457082D01*
X902993Y456963D01*
X903006Y456925D01*
X903011Y456884D01*
X903054Y456774D01*
X903091Y456661D01*
X903113Y456626D01*
X903128Y456589D01*
X903198Y456493D01*
X903261Y456392D01*
X903291Y456364D01*
X903314Y456331D01*
X903406Y456256D01*
X903493Y456174D01*
X903528Y456154D01*
X903559Y456129D01*
X903667Y456078D01*
X903771Y456020D01*
X903811Y456010D01*
X903847Y455993D01*
X903964Y455971D01*
X904079Y455941D01*
X904140Y455937D01*
X904160Y455933D01*
X904180Y455935D01*
X904240Y455931D01*
X963931Y455931D01*
X963931Y102126D01*
X913874Y52069D01*
X506806Y52069D01*
X506688Y52054D01*
X506569Y52047D01*
X506531Y52034D01*
X506491Y52029D01*
X506380Y51986D01*
X506267Y51949D01*
X506233Y51927D01*
X506195Y51912D01*
X506099Y51843D01*
X505998Y51779D01*
X505970Y51749D01*
X505938Y51726D01*
X505862Y51634D01*
X505780Y51547D01*
X505761Y51512D01*
X505735Y51481D01*
X505684Y51373D01*
X505627Y51269D01*
X505616Y51229D01*
X505599Y51193D01*
X505577Y51076D01*
X505547Y50961D01*
X505543Y50901D01*
X505539Y50881D01*
X505541Y50860D01*
X505541Y50859D01*
X505539Y50853D01*
X505540Y50846D01*
X505537Y50800D01*
X505537Y50253D01*
X498945Y50253D01*
X498827Y50238D01*
X498708Y50231D01*
X498670Y50218D01*
X498630Y50213D01*
X498519Y50169D01*
X498406Y50133D01*
X498371Y50111D01*
X498334Y50096D01*
X498238Y50026D01*
X498137Y49963D01*
X498109Y49933D01*
X498077Y49909D01*
X498001Y49818D01*
X497919Y49731D01*
X497900Y49696D01*
X497874Y49664D01*
X497844Y49600D01*
X497777Y49691D01*
X497714Y49792D01*
X497684Y49820D01*
X497660Y49852D01*
X497569Y49928D01*
X497482Y50010D01*
X497447Y50029D01*
X497415Y50055D01*
X497308Y50106D01*
X497204Y50163D01*
X497164Y50174D01*
X497128Y50191D01*
X497011Y50213D01*
X496896Y50243D01*
X496835Y50247D01*
X496815Y50251D01*
X496795Y50249D01*
X496735Y50253D01*
X490143Y50253D01*
X490143Y50800D01*
X490128Y50918D01*
X490121Y51037D01*
X490108Y51075D01*
X490103Y51116D01*
X490059Y51226D01*
X490023Y51339D01*
X490001Y51374D01*
X489986Y51411D01*
X489916Y51508D01*
X489853Y51608D01*
X489823Y51636D01*
X489799Y51669D01*
X489708Y51745D01*
X489621Y51826D01*
X489586Y51846D01*
X489554Y51871D01*
X489447Y51922D01*
X489342Y51980D01*
X489303Y51990D01*
X489267Y52007D01*
X489150Y52029D01*
X489035Y52059D01*
X488974Y52063D01*
X488954Y52067D01*
X488934Y52065D01*
X488874Y52069D01*
X102126Y52069D01*
X52069Y102126D01*
X52069Y1167874D01*
X102126Y1217931D01*
G37*
%LPD*%
%LPC*%
G36*
X32568Y79319D02*
X32568Y79319D01*
X28519Y83368D01*
X27036Y88900D01*
X28519Y94432D01*
X32568Y98481D01*
X38100Y99964D01*
X43632Y98481D01*
X47681Y94432D01*
X49164Y88900D01*
X47681Y83368D01*
X43632Y79319D01*
X38100Y77836D01*
X32568Y79319D01*
G37*
%LPD*%
%LPC*%
G36*
X972368Y79319D02*
X972368Y79319D01*
X968319Y83368D01*
X966836Y88900D01*
X968319Y94432D01*
X972368Y98481D01*
X977900Y99964D01*
X983432Y98481D01*
X987481Y94432D01*
X988964Y88900D01*
X987481Y83368D01*
X983432Y79319D01*
X977900Y77836D01*
X972368Y79319D01*
G37*
%LPD*%
%LPC*%
G36*
X972368Y1171519D02*
X972368Y1171519D01*
X968319Y1175568D01*
X966836Y1181100D01*
X968319Y1186632D01*
X972368Y1190681D01*
X977900Y1192164D01*
X983432Y1190681D01*
X987481Y1186632D01*
X988964Y1181100D01*
X987481Y1175568D01*
X983432Y1171519D01*
X977900Y1170036D01*
X972368Y1171519D01*
G37*
%LPD*%
%LPC*%
G36*
X40639Y1234439D02*
X40639Y1234439D01*
X40639Y1256536D01*
X42255Y1256354D01*
X44967Y1255735D01*
X47592Y1254817D01*
X50099Y1253610D01*
X52454Y1252130D01*
X54629Y1250395D01*
X56595Y1248429D01*
X58330Y1246254D01*
X59810Y1243899D01*
X61017Y1241392D01*
X61935Y1238767D01*
X62554Y1236055D01*
X62736Y1234439D01*
X40639Y1234439D01*
G37*
%LPD*%
%LPC*%
G36*
X980439Y1234439D02*
X980439Y1234439D01*
X980439Y1256536D01*
X982055Y1256354D01*
X984767Y1255735D01*
X987392Y1254817D01*
X989899Y1253610D01*
X992254Y1252130D01*
X994429Y1250395D01*
X996395Y1248429D01*
X998130Y1246254D01*
X999610Y1243899D01*
X1000817Y1241392D01*
X1001735Y1238767D01*
X1002354Y1236055D01*
X1002536Y1234439D01*
X980439Y1234439D01*
G37*
%LPD*%
%LPC*%
G36*
X40639Y40639D02*
X40639Y40639D01*
X40639Y62736D01*
X42255Y62554D01*
X44967Y61935D01*
X47592Y61017D01*
X50099Y59810D01*
X52454Y58330D01*
X54629Y56595D01*
X56595Y54629D01*
X58330Y52454D01*
X59810Y50099D01*
X61017Y47592D01*
X61935Y44967D01*
X62554Y42255D01*
X62736Y40639D01*
X40639Y40639D01*
G37*
%LPD*%
%LPC*%
G36*
X980439Y40639D02*
X980439Y40639D01*
X980439Y62736D01*
X982055Y62554D01*
X984767Y61935D01*
X987392Y61017D01*
X989899Y59810D01*
X992254Y58330D01*
X994429Y56595D01*
X996395Y54629D01*
X998130Y52454D01*
X999610Y50099D01*
X1000817Y47592D01*
X1001735Y44967D01*
X1002354Y42255D01*
X1002536Y40639D01*
X980439Y40639D01*
G37*
%LPD*%
%LPC*%
G36*
X13464Y1234439D02*
X13464Y1234439D01*
X13646Y1236055D01*
X14265Y1238767D01*
X15183Y1241392D01*
X16390Y1243899D01*
X17870Y1246254D01*
X19605Y1248429D01*
X21571Y1250395D01*
X23746Y1252130D01*
X26101Y1253610D01*
X28608Y1254817D01*
X31233Y1255735D01*
X33945Y1256354D01*
X35561Y1256536D01*
X35561Y1234439D01*
X13464Y1234439D01*
G37*
%LPD*%
%LPC*%
G36*
X953264Y1234439D02*
X953264Y1234439D01*
X953446Y1236055D01*
X954065Y1238767D01*
X954983Y1241392D01*
X956190Y1243899D01*
X957670Y1246254D01*
X959405Y1248429D01*
X961371Y1250395D01*
X963546Y1252130D01*
X965901Y1253610D01*
X968408Y1254817D01*
X971033Y1255735D01*
X973745Y1256354D01*
X975361Y1256536D01*
X975361Y1234439D01*
X953264Y1234439D01*
G37*
%LPD*%
%LPC*%
G36*
X980439Y1229361D02*
X980439Y1229361D01*
X1002536Y1229361D01*
X1002354Y1227745D01*
X1001735Y1225033D01*
X1000817Y1222408D01*
X999610Y1219901D01*
X998130Y1217546D01*
X996395Y1215371D01*
X994429Y1213405D01*
X992254Y1211670D01*
X989899Y1210190D01*
X987392Y1208983D01*
X984767Y1208065D01*
X982055Y1207446D01*
X980439Y1207264D01*
X980439Y1229361D01*
G37*
%LPD*%
%LPC*%
G36*
X40639Y1229361D02*
X40639Y1229361D01*
X62736Y1229361D01*
X62554Y1227745D01*
X61935Y1225033D01*
X61017Y1222408D01*
X59810Y1219901D01*
X58330Y1217546D01*
X56595Y1215371D01*
X54629Y1213405D01*
X52454Y1211670D01*
X50099Y1210190D01*
X47592Y1208983D01*
X44967Y1208065D01*
X42255Y1207446D01*
X40639Y1207264D01*
X40639Y1229361D01*
G37*
%LPD*%
%LPC*%
G36*
X13464Y40639D02*
X13464Y40639D01*
X13646Y42255D01*
X14265Y44967D01*
X15183Y47592D01*
X16390Y50099D01*
X17870Y52454D01*
X19605Y54629D01*
X21571Y56595D01*
X23746Y58330D01*
X26101Y59810D01*
X28608Y61017D01*
X31233Y61935D01*
X33945Y62554D01*
X35561Y62736D01*
X35561Y40639D01*
X13464Y40639D01*
G37*
%LPD*%
%LPC*%
G36*
X953264Y40639D02*
X953264Y40639D01*
X953446Y42255D01*
X954065Y44967D01*
X954983Y47592D01*
X956190Y50099D01*
X957670Y52454D01*
X959405Y54629D01*
X961371Y56595D01*
X963546Y58330D01*
X965901Y59810D01*
X968408Y61017D01*
X971033Y61935D01*
X973745Y62554D01*
X975361Y62736D01*
X975361Y40639D01*
X953264Y40639D01*
G37*
%LPD*%
%LPC*%
G36*
X980439Y35561D02*
X980439Y35561D01*
X1002536Y35561D01*
X1002354Y33945D01*
X1001735Y31233D01*
X1000817Y28608D01*
X999610Y26101D01*
X998130Y23746D01*
X996395Y21571D01*
X994429Y19605D01*
X992254Y17870D01*
X989899Y16390D01*
X987392Y15183D01*
X984767Y14265D01*
X982055Y13646D01*
X980439Y13464D01*
X980439Y35561D01*
G37*
%LPD*%
%LPC*%
G36*
X40639Y35561D02*
X40639Y35561D01*
X62736Y35561D01*
X62554Y33945D01*
X61935Y31233D01*
X61017Y28608D01*
X59810Y26101D01*
X58330Y23746D01*
X56595Y21571D01*
X54629Y19605D01*
X52454Y17870D01*
X50099Y16390D01*
X47592Y15183D01*
X44967Y14265D01*
X42255Y13646D01*
X40639Y13464D01*
X40639Y35561D01*
G37*
%LPD*%
%LPC*%
G36*
X973745Y1207446D02*
X973745Y1207446D01*
X971033Y1208065D01*
X968408Y1208983D01*
X965901Y1210190D01*
X963546Y1211670D01*
X961371Y1213405D01*
X959405Y1215371D01*
X957670Y1217546D01*
X956190Y1219901D01*
X954983Y1222408D01*
X954065Y1225033D01*
X953446Y1227745D01*
X953264Y1229361D01*
X975361Y1229361D01*
X975361Y1207264D01*
X973745Y1207446D01*
G37*
%LPD*%
%LPC*%
G36*
X33945Y1207446D02*
X33945Y1207446D01*
X31233Y1208065D01*
X28608Y1208983D01*
X26101Y1210190D01*
X23746Y1211670D01*
X21571Y1213405D01*
X19605Y1215371D01*
X17870Y1217546D01*
X16390Y1219901D01*
X15183Y1222408D01*
X14265Y1225033D01*
X13646Y1227745D01*
X13464Y1229361D01*
X35561Y1229361D01*
X35561Y1207264D01*
X33945Y1207446D01*
G37*
%LPD*%
%LPC*%
G36*
X973745Y13646D02*
X973745Y13646D01*
X971033Y14265D01*
X968408Y15183D01*
X965901Y16390D01*
X963546Y17870D01*
X961371Y19605D01*
X959405Y21571D01*
X957670Y23746D01*
X956190Y26101D01*
X954983Y28608D01*
X954065Y31233D01*
X953446Y33945D01*
X953264Y35561D01*
X975361Y35561D01*
X975361Y13464D01*
X973745Y13646D01*
G37*
%LPD*%
%LPC*%
G36*
X33945Y13646D02*
X33945Y13646D01*
X31233Y14265D01*
X28608Y15183D01*
X26101Y16390D01*
X23746Y17870D01*
X21571Y19605D01*
X19605Y21571D01*
X17870Y23746D01*
X16390Y26101D01*
X15183Y28608D01*
X14265Y31233D01*
X13646Y33945D01*
X13464Y35561D01*
X35561Y35561D01*
X35561Y13464D01*
X33945Y13646D01*
G37*
%LPD*%
%LPC*%
G36*
X905939Y617439D02*
X905939Y617439D01*
X905939Y633367D01*
X907045Y633222D01*
X909405Y632589D01*
X911662Y631654D01*
X913778Y630432D01*
X915717Y628945D01*
X917445Y627217D01*
X918932Y625278D01*
X920154Y623162D01*
X921089Y620905D01*
X921722Y618545D01*
X921867Y617439D01*
X905939Y617439D01*
G37*
%LPD*%
%LPC*%
G36*
X905939Y486039D02*
X905939Y486039D01*
X905939Y501967D01*
X907045Y501822D01*
X909405Y501189D01*
X911662Y500254D01*
X913778Y499032D01*
X915717Y497545D01*
X917445Y495817D01*
X918932Y493878D01*
X920154Y491762D01*
X921089Y489505D01*
X921722Y487145D01*
X921867Y486039D01*
X905939Y486039D01*
G37*
%LPD*%
%LPC*%
G36*
X905939Y612361D02*
X905939Y612361D01*
X921867Y612361D01*
X921722Y611255D01*
X921089Y608895D01*
X920154Y606638D01*
X918932Y604522D01*
X917445Y602583D01*
X915717Y600855D01*
X913778Y599368D01*
X911662Y598146D01*
X909405Y597211D01*
X907045Y596578D01*
X905939Y596433D01*
X905939Y612361D01*
G37*
%LPD*%
%LPC*%
G36*
X905939Y480961D02*
X905939Y480961D01*
X921867Y480961D01*
X921722Y479855D01*
X921089Y477495D01*
X920154Y475238D01*
X918932Y473122D01*
X917445Y471183D01*
X915717Y469455D01*
X913778Y467968D01*
X911662Y466746D01*
X909405Y465811D01*
X907045Y465178D01*
X905939Y465033D01*
X905939Y480961D01*
G37*
%LPD*%
%LPC*%
G36*
X500214Y40588D02*
X500214Y40588D01*
X500214Y45505D01*
X505537Y45505D01*
X505537Y42795D01*
X505364Y42148D01*
X505029Y41569D01*
X504556Y41096D01*
X503977Y40762D01*
X503331Y40588D01*
X500214Y40588D01*
G37*
%LPD*%
%LPC*%
G36*
X492349Y40588D02*
X492349Y40588D01*
X491703Y40762D01*
X491124Y41096D01*
X490651Y41569D01*
X490316Y42148D01*
X490143Y42795D01*
X490143Y45505D01*
X495466Y45505D01*
X495466Y40588D01*
X492349Y40588D01*
G37*
%LPD*%
%LPC*%
G36*
X977899Y1231899D02*
X977899Y1231899D01*
X977899Y1231901D01*
X977901Y1231901D01*
X977901Y1231899D01*
X977899Y1231899D01*
G37*
%LPD*%
%LPC*%
G36*
X38099Y1231899D02*
X38099Y1231899D01*
X38099Y1231901D01*
X38101Y1231901D01*
X38101Y1231899D01*
X38099Y1231899D01*
G37*
%LPD*%
%LPC*%
G36*
X977899Y38099D02*
X977899Y38099D01*
X977899Y38101D01*
X977901Y38101D01*
X977901Y38099D01*
X977899Y38099D01*
G37*
%LPD*%
%LPC*%
G36*
X38099Y38099D02*
X38099Y38099D01*
X38099Y38101D01*
X38101Y38101D01*
X38101Y38099D01*
X38099Y38099D01*
G37*
%LPD*%
D10*
X881500Y1143000D03*
X896500Y1143000D03*
X881500Y952500D03*
X896500Y952500D03*
X881500Y762000D03*
X896500Y762000D03*
D11*
X876300Y584200D03*
D12*
X876300Y559200D03*
X876300Y539200D03*
X876300Y514200D03*
D13*
X903400Y614900D03*
X903400Y483500D03*
D14*
X152400Y1181100D03*
D15*
X177800Y1181100D03*
X203200Y1181100D03*
X228600Y1181100D03*
X254000Y1181100D03*
X279400Y1181100D03*
X304800Y1181100D03*
X330200Y1181100D03*
X355600Y1181100D03*
X381000Y1181100D03*
X406400Y1181100D03*
X431800Y1181100D03*
X457200Y1181100D03*
X482600Y1181100D03*
X508000Y1181100D03*
X533400Y1181100D03*
X558800Y1181100D03*
X584200Y1181100D03*
X609600Y1181100D03*
X635000Y1181100D03*
D14*
X152400Y419100D03*
D15*
X177800Y419100D03*
X203200Y419100D03*
X228600Y419100D03*
X254000Y419100D03*
X279400Y419100D03*
X304800Y419100D03*
X330200Y419100D03*
X355600Y419100D03*
X381000Y419100D03*
X406400Y419100D03*
X431800Y419100D03*
X457200Y419100D03*
X482600Y419100D03*
X508000Y419100D03*
X533400Y419100D03*
X558800Y419100D03*
X584200Y419100D03*
X609600Y419100D03*
X635000Y419100D03*
D16*
X107950Y419100D03*
X679450Y419100D03*
X107950Y1181100D03*
X679450Y1181100D03*
D17*
X956900Y810000D03*
D18*
X956900Y835400D03*
X931500Y810000D03*
X931500Y835400D03*
X906100Y810000D03*
X906100Y835400D03*
X880700Y810000D03*
X880700Y835400D03*
X855300Y810000D03*
X855300Y835400D03*
X829900Y810000D03*
X829900Y835400D03*
X804500Y810000D03*
X804500Y835400D03*
X779100Y810000D03*
X779100Y835400D03*
X753700Y810000D03*
X753700Y835400D03*
X728300Y810000D03*
X728300Y835400D03*
X702900Y810000D03*
X702900Y835400D03*
X677500Y810000D03*
X677500Y835400D03*
X652100Y810000D03*
X652100Y835400D03*
X626700Y810000D03*
X626700Y835400D03*
X601300Y810000D03*
X601300Y835400D03*
X575900Y810000D03*
X575900Y835400D03*
X550500Y810000D03*
X550500Y835400D03*
X525100Y810000D03*
X525100Y835400D03*
D17*
X956900Y1064000D03*
D18*
X956900Y1089400D03*
X931500Y1064000D03*
X931500Y1089400D03*
X906100Y1064000D03*
X906100Y1089400D03*
X880700Y1064000D03*
X880700Y1089400D03*
X855300Y1064000D03*
X855300Y1089400D03*
X829900Y1064000D03*
X829900Y1089400D03*
X804500Y1064000D03*
X804500Y1089400D03*
X779100Y1064000D03*
X779100Y1089400D03*
X753700Y1064000D03*
X753700Y1089400D03*
X728300Y1064000D03*
X728300Y1089400D03*
X702900Y1064000D03*
X702900Y1089400D03*
X677500Y1064000D03*
X677500Y1089400D03*
X652100Y1064000D03*
X652100Y1089400D03*
X626700Y1064000D03*
X626700Y1089400D03*
X601300Y1064000D03*
X601300Y1089400D03*
X575900Y1064000D03*
X575900Y1089400D03*
X550500Y1064000D03*
X550500Y1089400D03*
X525100Y1064000D03*
X525100Y1089400D03*
D19*
X253000Y215500D03*
X253000Y165500D03*
X128000Y165500D03*
X128000Y215500D03*
X888000Y215500D03*
X888000Y165500D03*
X763000Y165500D03*
X763000Y215500D03*
D20*
X546500Y127000D03*
X571500Y127000D03*
X596500Y127000D03*
X356000Y127000D03*
X381000Y127000D03*
X406000Y127000D03*
D21*
X715899Y215900D03*
X731901Y215900D03*
X96901Y215900D03*
X80899Y215900D03*
D22*
X38100Y1231900D03*
X38100Y38100D03*
X977900Y38100D03*
X977900Y1231900D03*
D23*
X38100Y88900D03*
X977900Y88900D03*
X977900Y1181100D03*
D24*
X497840Y63881D03*
X497840Y47879D03*
D25*
X896500Y1143000D02*
X909320Y1143000D01*
D26*
X909320Y1143000D03*
D25*
X911860Y952500D02*
X896500Y952500D01*
D26*
X911860Y952500D03*
D25*
X497840Y76200D02*
X497840Y63881D01*
D26*
X497840Y76200D03*
D25*
X896500Y762000D02*
X909320Y762000D01*
D26*
X909320Y762000D03*
D25*
X936235Y798570D02*
X942930Y805266D01*
X961635Y823970D02*
X968330Y830666D01*
X918070Y798570D02*
X881500Y762000D01*
X918070Y798570D02*
X936235Y798570D01*
X942930Y805266D02*
X942930Y816658D01*
X950242Y823970D01*
X961635Y823970D01*
X968330Y830666D02*
X968330Y849370D01*
X753700Y1064000D01*
X781430Y1052570D02*
X881500Y952500D01*
X781430Y1052570D02*
X774366Y1052570D01*
X767670Y1059266D01*
X737536Y1089400D02*
X728300Y1089400D01*
X737536Y1089400D02*
X748966Y1077970D01*
X767670Y1066195D02*
X767670Y1059266D01*
X767670Y1066195D02*
X755895Y1077970D01*
X748966Y1077970D01*
X881500Y1090200D02*
X881500Y1143000D01*
X881500Y1090200D02*
X880700Y1089400D01*
X80899Y228219D02*
X80899Y215900D01*
X80899Y228219D02*
X81280Y228600D01*
D26*
X81280Y228600D03*
D25*
X731901Y215900D02*
X731901Y203200D01*
X731520Y203200D01*
D26*
X731520Y203200D03*
D25*
X725573Y224866D02*
X738229Y224866D01*
X747595Y215500D02*
X763000Y215500D01*
X747595Y215500D02*
X738229Y224866D01*
X716607Y215900D02*
X715899Y215900D01*
X716607Y215900D02*
X725573Y224866D01*
X763000Y215500D02*
X888000Y215500D01*
X367792Y414050D02*
X360650Y406908D01*
X223550Y406908D02*
X216408Y414050D01*
X216408Y424150D01*
X563850Y431292D02*
X572008Y423134D01*
X563850Y431292D02*
X375950Y431292D01*
X367792Y423134D01*
X367792Y414050D01*
X575900Y783642D02*
X575900Y810000D01*
X575900Y783642D02*
X216408Y424150D01*
X572008Y359791D02*
X715899Y215900D01*
X572008Y359791D02*
X572008Y423134D01*
X360650Y406908D02*
X223550Y406908D01*
D26*
X502920Y782320D03*
D25*
X519170Y798570D01*
X541265Y810000D02*
X550500Y810000D01*
X529835Y798570D02*
X519170Y798570D01*
X529835Y798570D02*
X541265Y810000D01*
X128000Y215500D02*
X97301Y215500D01*
X96901Y215900D01*
X128000Y215500D02*
X253000Y215500D01*
D26*
X741680Y833120D03*
D25*
X743960Y835400D01*
X753700Y835400D01*
X365712Y127000D02*
X356000Y127000D01*
X421288Y127000D02*
X546500Y127000D01*
X376522Y137810D02*
X365712Y127000D01*
X410478Y137810D02*
X421288Y127000D01*
X410478Y137810D02*
X376522Y137810D01*
X406000Y127000D02*
X419100Y113900D01*
X419100Y109220D01*
X596900Y109220D01*
X596900Y126600D01*
X596500Y127000D01*
D26*
X764540Y805428D03*
D25*
X758272Y805428D01*
X753700Y810000D01*
D26*
X739140Y810260D03*
D25*
X738880Y810000D01*
X728300Y810000D01*
D26*
X690880Y807720D03*
D25*
X700620Y807720D01*
X702900Y810000D01*
D26*
X891562Y794998D03*
D25*
X906100Y809537D01*
X906100Y810000D01*
X615270Y805770D02*
X228600Y419100D01*
X615270Y805770D02*
X615270Y814735D01*
X621966Y821430D01*
X640670Y840135D02*
X647366Y846830D01*
X628895Y821430D02*
X621966Y821430D01*
X628895Y821430D02*
X640670Y833206D01*
X640670Y840135D01*
X647366Y846830D02*
X860035Y846830D01*
X871465Y835400D02*
X880700Y835400D01*
X871465Y835400D02*
X860035Y846830D01*
X640670Y805770D02*
X254000Y419100D01*
X640670Y805770D02*
X640670Y814735D01*
X649906Y823970D01*
X818470Y823970D02*
X829900Y835400D01*
X818470Y823970D02*
X649906Y823970D01*
X809235Y798570D02*
X815930Y805266D01*
X658870Y798570D02*
X279400Y419100D01*
X815930Y805266D02*
X815930Y812195D01*
X827706Y823970D01*
X836234Y823970D01*
X809235Y798570D02*
X658870Y798570D01*
X847664Y835400D02*
X855300Y835400D01*
X847664Y835400D02*
X836234Y823970D01*
X679190Y793490D02*
X304800Y419100D01*
X841330Y805266D02*
X841330Y812195D01*
X853106Y823970D01*
X896865Y835400D02*
X906100Y835400D01*
X885435Y823970D02*
X853106Y823970D01*
X885435Y823970D02*
X896865Y835400D01*
X829555Y793490D02*
X679190Y793490D01*
X829555Y793490D02*
X841330Y805266D01*
X699510Y788410D02*
X330200Y419100D01*
X922265Y835400D02*
X931500Y835400D01*
X922265Y835400D02*
X910835Y823970D01*
X892130Y812195D02*
X892130Y805266D01*
X892130Y812195D02*
X903906Y823970D01*
X910835Y823970D01*
X875275Y788410D02*
X699510Y788410D01*
X875275Y788410D02*
X892130Y805266D01*
X719830Y783330D02*
X355600Y419100D01*
X947665Y835400D02*
X956900Y835400D01*
X947665Y835400D02*
X936235Y823970D01*
X917530Y812195D02*
X917530Y805266D01*
X917530Y812195D02*
X929306Y823970D01*
X936235Y823970D01*
X895595Y783330D02*
X719830Y783330D01*
X895595Y783330D02*
X917530Y805266D01*
D26*
X848360Y551180D03*
D25*
X868280Y551180D02*
X876300Y559200D01*
X868280Y551180D02*
X848360Y551180D01*
D26*
X848360Y541020D03*
D25*
X852424Y545084D02*
X870416Y545084D01*
X852424Y545084D02*
X848360Y541020D01*
X870416Y545084D02*
X876300Y539200D01*
M02*
