G04 EAGLE Gerber RS-274X export*
G75*
%MOMM*%
%FSLAX34Y34*%
%LPD*%
%INBottom Copper*%
%IPPOS*%
%AMOC8*
5,1,8,0,0,1.08239X$1,22.5*%
G01*
%ADD10R,1.288000X1.288000*%
%ADD11C,1.288000*%
%ADD12C,3.220000*%
%ADD13R,1.676400X1.676400*%
%ADD14C,1.676400*%
%ADD15C,4.016000*%
%ADD16R,1.524000X1.524000*%
%ADD17P,1.649562X8X202.500000*%
%ADD18C,1.960000*%
%ADD19C,1.400000*%
%ADD20C,4.445000*%
%ADD21C,1.016000*%
%ADD22C,0.609600*%
%ADD23C,0.254000*%


D10*
X876300Y584200D03*
D11*
X876300Y559200D03*
X876300Y539200D03*
X876300Y514200D03*
D12*
X903400Y614900D03*
X903400Y483500D03*
D13*
X152400Y1181100D03*
D14*
X177800Y1181100D03*
X203200Y1181100D03*
X228600Y1181100D03*
X254000Y1181100D03*
X279400Y1181100D03*
X304800Y1181100D03*
X330200Y1181100D03*
X355600Y1181100D03*
X381000Y1181100D03*
X406400Y1181100D03*
X431800Y1181100D03*
X457200Y1181100D03*
X482600Y1181100D03*
X508000Y1181100D03*
X533400Y1181100D03*
X558800Y1181100D03*
X584200Y1181100D03*
X609600Y1181100D03*
X635000Y1181100D03*
D13*
X152400Y419100D03*
D14*
X177800Y419100D03*
X203200Y419100D03*
X228600Y419100D03*
X254000Y419100D03*
X279400Y419100D03*
X304800Y419100D03*
X330200Y419100D03*
X355600Y419100D03*
X381000Y419100D03*
X406400Y419100D03*
X431800Y419100D03*
X457200Y419100D03*
X482600Y419100D03*
X508000Y419100D03*
X533400Y419100D03*
X558800Y419100D03*
X584200Y419100D03*
X609600Y419100D03*
X635000Y419100D03*
D15*
X107950Y419100D03*
X679450Y419100D03*
X107950Y1181100D03*
X679450Y1181100D03*
D16*
X956900Y810000D03*
D17*
X956900Y835400D03*
X931500Y810000D03*
X931500Y835400D03*
X906100Y810000D03*
X906100Y835400D03*
X880700Y810000D03*
X880700Y835400D03*
X855300Y810000D03*
X855300Y835400D03*
X829900Y810000D03*
X829900Y835400D03*
X804500Y810000D03*
X804500Y835400D03*
X779100Y810000D03*
X779100Y835400D03*
X753700Y810000D03*
X753700Y835400D03*
X728300Y810000D03*
X728300Y835400D03*
X702900Y810000D03*
X702900Y835400D03*
X677500Y810000D03*
X677500Y835400D03*
X652100Y810000D03*
X652100Y835400D03*
X626700Y810000D03*
X626700Y835400D03*
X601300Y810000D03*
X601300Y835400D03*
X575900Y810000D03*
X575900Y835400D03*
X550500Y810000D03*
X550500Y835400D03*
X525100Y810000D03*
X525100Y835400D03*
D16*
X956900Y1064000D03*
D17*
X956900Y1089400D03*
X931500Y1064000D03*
X931500Y1089400D03*
X906100Y1064000D03*
X906100Y1089400D03*
X880700Y1064000D03*
X880700Y1089400D03*
X855300Y1064000D03*
X855300Y1089400D03*
X829900Y1064000D03*
X829900Y1089400D03*
X804500Y1064000D03*
X804500Y1089400D03*
X779100Y1064000D03*
X779100Y1089400D03*
X753700Y1064000D03*
X753700Y1089400D03*
X728300Y1064000D03*
X728300Y1089400D03*
X702900Y1064000D03*
X702900Y1089400D03*
X677500Y1064000D03*
X677500Y1089400D03*
X652100Y1064000D03*
X652100Y1089400D03*
X626700Y1064000D03*
X626700Y1089400D03*
X601300Y1064000D03*
X601300Y1089400D03*
X575900Y1064000D03*
X575900Y1089400D03*
X550500Y1064000D03*
X550500Y1089400D03*
X525100Y1064000D03*
X525100Y1089400D03*
D18*
X253000Y215500D03*
X253000Y165500D03*
X128000Y165500D03*
X128000Y215500D03*
X888000Y215500D03*
X888000Y165500D03*
X763000Y165500D03*
X763000Y215500D03*
D19*
X546500Y127000D03*
X571500Y127000D03*
X596500Y127000D03*
X356000Y127000D03*
X381000Y127000D03*
X406000Y127000D03*
D20*
X38100Y1231900D03*
X38100Y38100D03*
X977900Y38100D03*
X977900Y1231900D03*
D21*
X38100Y88900D03*
X977900Y88900D03*
X977900Y1181100D03*
D22*
X909320Y1143000D03*
X911860Y952500D03*
X497840Y76200D03*
X909320Y762000D03*
X81280Y228600D03*
X731520Y203200D03*
D23*
X253000Y215500D02*
X253000Y402858D01*
X241808Y414050D01*
X241808Y523748D01*
X500380Y782320D01*
X502920Y782320D01*
D22*
X502920Y782320D03*
X741680Y833120D03*
D23*
X741680Y832616D02*
X733035Y823970D01*
X741680Y832616D02*
X741680Y833120D01*
X546500Y637436D02*
X546500Y127000D01*
X546500Y637436D02*
X716870Y807806D01*
X716870Y814735D01*
X726106Y823970D01*
X733035Y823970D01*
X746760Y787400D02*
X746760Y292010D01*
X746760Y787400D02*
X764540Y805180D01*
X596500Y141750D02*
X596500Y127000D01*
X596500Y141750D02*
X746760Y292010D01*
X764540Y805180D02*
X764540Y805428D01*
D22*
X764540Y805428D03*
D23*
X625190Y180690D02*
X571500Y127000D01*
X625190Y180690D02*
X628256Y180690D01*
X741680Y294114D01*
X741680Y810260D01*
X739140Y810260D01*
D22*
X739140Y810260D03*
D23*
X688930Y807720D02*
X688930Y805266D01*
X381000Y401858D02*
X381000Y127000D01*
X381000Y401858D02*
X368808Y414050D01*
X368808Y485144D01*
X688930Y805266D01*
X688930Y807720D02*
X690880Y807720D01*
D22*
X690880Y807720D03*
D23*
X677500Y835400D02*
X677500Y913720D01*
X749300Y985520D02*
X800100Y985520D01*
X804500Y989920D01*
X804500Y1064000D01*
X749300Y985520D02*
X677500Y913720D01*
X869270Y830666D02*
X875966Y823970D01*
X686736Y835400D02*
X677500Y835400D01*
X892130Y823970D02*
X906100Y810000D01*
X698166Y846830D02*
X686736Y835400D01*
X875966Y823970D02*
X892130Y823970D01*
X869270Y837595D02*
X860035Y846830D01*
X869270Y837595D02*
X869270Y830666D01*
X860035Y846830D02*
X698166Y846830D01*
X876300Y779737D02*
X876300Y584200D01*
X876300Y779737D02*
X891562Y794998D01*
D22*
X891562Y794998D03*
D23*
X855300Y810000D02*
X850690Y805390D01*
X845820Y553720D02*
X848360Y551180D01*
D22*
X848360Y551180D03*
D23*
X845820Y553720D02*
X845820Y561340D01*
X848360Y563880D01*
X850900Y563880D01*
X853440Y566420D01*
X853440Y571500D02*
X850900Y574040D01*
X848360Y574040D01*
X845820Y576580D01*
X845820Y800520D02*
X850690Y805390D01*
X853440Y571500D02*
X853440Y566420D01*
X845820Y576580D02*
X845820Y800520D01*
X840740Y799160D02*
X829900Y810000D01*
X840740Y799160D02*
X840740Y548640D01*
X848360Y541020D01*
D22*
X848360Y541020D03*
M02*
