M48
;GenerationSoftware,Autodesk,EAGLE,9.6.2*%
;CreationDate,2022-12-14T03:43:06Z*%
FMAT,2
ICI,OFF
METRIC,TZ,000.000
T9C0.305
T8C0.889
T7C0.920
T6C1.000
T5C1.400
T4C2.300
T3C2.500
T2C3.000
T1C3.175
%
G90
M71
T1
X97790Y3810
X97790Y123190
X3810Y123190
X3810Y3810
T2
X67945Y41910
X10795Y41910
X10795Y118110
X67945Y118110
T3
X52150Y19700
X62150Y19700
X33100Y19700
X43100Y19700
T4
X90340Y61490
X90340Y48350
T5
X88800Y21550
X76300Y21550
X76300Y16550
X88800Y16550
X12800Y21550
X12800Y16550
X25300Y16550
X25300Y21550
T6
X54650Y12700
X50800Y118110
X15240Y118110
X17780Y118110
X20320Y118110
X22860Y118110
X25400Y118110
X27940Y118110
X30480Y118110
X33020Y118110
X35560Y118110
X38100Y118110
X40640Y118110
X43180Y118110
X45720Y118110
X48260Y118110
X53340Y118110
X55880Y118110
X58420Y118110
X60960Y118110
X63500Y118110
X15240Y41910
X17780Y41910
X20320Y41910
X22860Y41910
X25400Y41910
X27940Y41910
X30480Y41910
X33020Y41910
X35560Y41910
X40640Y41910
X43180Y41910
X45720Y41910
X48260Y41910
X50800Y41910
X53340Y41910
X55880Y41910
X58420Y41910
X38100Y41910
X63500Y41910
X38100Y12700
X35600Y12700
X40600Y12700
X59650Y12700
X57150Y12700
X60960Y41910
T7
X87630Y55920
X87630Y58420
X87630Y51420
X87630Y53920
T8
X90610Y81000
X90610Y83540
X88070Y81000
X88070Y83540
X85530Y81000
X85530Y83540
X82990Y81000
X82990Y83540
X80450Y81000
X80450Y83540
X77910Y81000
X77910Y83540
X75370Y81000
X75370Y83540
X72830Y81000
X72830Y83540
X70290Y81000
X70290Y83540
X67750Y81000
X67750Y83540
X65210Y81000
X65210Y83540
X62670Y81000
X62670Y83540
X60130Y81000
X60130Y83540
X57590Y81000
X57590Y83540
X55050Y81000
X55050Y83540
X52510Y81000
X52510Y83540
X95690Y106400
X95690Y108940
X93150Y106400
X93150Y108940
X90610Y106400
X90610Y108940
X88070Y106400
X88070Y108940
X85530Y106400
X85530Y108940
X82990Y106400
X82990Y108940
X80450Y106400
X80450Y108940
X77910Y106400
X75370Y106400
X75370Y108940
X72830Y106400
X72830Y108940
X70290Y106400
X70290Y108940
X67750Y106400
X67750Y108940
X65210Y106400
X65210Y108940
X62670Y106400
X62670Y108940
X60130Y106400
X60130Y108940
X57590Y106400
X57590Y108940
X55050Y106400
X55050Y108940
X77910Y108940
X52510Y108940
X95690Y81000
X95690Y83540
X93150Y81000
X93150Y83540
X52510Y106400
T9
X73914Y81026
X76454Y80543
X74168Y83312
X50292Y78232
X73152Y20320
X8128Y22860
X90932Y76200
X49784Y7620
X91186Y95250
X90932Y114300
X84836Y54102
X84836Y55118
X89156Y79500
X69088Y80772
M30