G04 EAGLE Gerber RS-274X export*
G75*
%MOMM*%
%FSLAX34Y34*%
%LPD*%
%IN*%
%IPPOS*%
%AMOC8*
5,1,8,0,0,1.08239X$1,22.5*%
G01*
%ADD10C,0.254000*%


D10*
X0Y0D02*
X1016000Y0D01*
X1016000Y1270000D01*
X0Y1270000D01*
X0Y0D01*
X534000Y196509D02*
X533923Y195530D01*
X533769Y194560D01*
X533540Y193604D01*
X533236Y192670D01*
X532861Y191763D01*
X532415Y190888D01*
X531901Y190050D01*
X531324Y189255D01*
X530686Y188508D01*
X529992Y187814D01*
X529245Y187176D01*
X528450Y186599D01*
X527612Y186085D01*
X526737Y185639D01*
X525830Y185264D01*
X524896Y184960D01*
X523941Y184731D01*
X522970Y184577D01*
X521991Y184500D01*
X521009Y184500D01*
X520030Y184577D01*
X519060Y184731D01*
X518104Y184960D01*
X517170Y185264D01*
X516263Y185639D01*
X515388Y186085D01*
X514550Y186599D01*
X513755Y187176D01*
X513008Y187814D01*
X512314Y188508D01*
X511676Y189255D01*
X511099Y190050D01*
X510585Y190888D01*
X510139Y191763D01*
X509764Y192670D01*
X509460Y193604D01*
X509231Y194560D01*
X509077Y195530D01*
X509000Y196509D01*
X509000Y197491D01*
X509077Y198470D01*
X509231Y199441D01*
X509460Y200396D01*
X509764Y201330D01*
X510139Y202237D01*
X510585Y203112D01*
X511099Y203950D01*
X511676Y204745D01*
X512314Y205492D01*
X513008Y206186D01*
X513755Y206824D01*
X514550Y207401D01*
X515388Y207915D01*
X516263Y208361D01*
X517170Y208736D01*
X518104Y209040D01*
X519060Y209269D01*
X520030Y209423D01*
X521009Y209500D01*
X521991Y209500D01*
X522970Y209423D01*
X523941Y209269D01*
X524896Y209040D01*
X525830Y208736D01*
X526737Y208361D01*
X527612Y207915D01*
X528450Y207401D01*
X529245Y206824D01*
X529992Y206186D01*
X530686Y205492D01*
X531324Y204745D01*
X531901Y203950D01*
X532415Y203112D01*
X532861Y202237D01*
X533236Y201330D01*
X533540Y200396D01*
X533769Y199441D01*
X533923Y198470D01*
X534000Y197491D01*
X534000Y196509D01*
X634000Y196509D02*
X633923Y195530D01*
X633769Y194560D01*
X633540Y193604D01*
X633236Y192670D01*
X632861Y191763D01*
X632415Y190888D01*
X631901Y190050D01*
X631324Y189255D01*
X630686Y188508D01*
X629992Y187814D01*
X629245Y187176D01*
X628450Y186599D01*
X627612Y186085D01*
X626737Y185639D01*
X625830Y185264D01*
X624896Y184960D01*
X623941Y184731D01*
X622970Y184577D01*
X621991Y184500D01*
X621009Y184500D01*
X620030Y184577D01*
X619060Y184731D01*
X618104Y184960D01*
X617170Y185264D01*
X616263Y185639D01*
X615388Y186085D01*
X614550Y186599D01*
X613755Y187176D01*
X613008Y187814D01*
X612314Y188508D01*
X611676Y189255D01*
X611099Y190050D01*
X610585Y190888D01*
X610139Y191763D01*
X609764Y192670D01*
X609460Y193604D01*
X609231Y194560D01*
X609077Y195530D01*
X609000Y196509D01*
X609000Y197491D01*
X609077Y198470D01*
X609231Y199441D01*
X609460Y200396D01*
X609764Y201330D01*
X610139Y202237D01*
X610585Y203112D01*
X611099Y203950D01*
X611676Y204745D01*
X612314Y205492D01*
X613008Y206186D01*
X613755Y206824D01*
X614550Y207401D01*
X615388Y207915D01*
X616263Y208361D01*
X617170Y208736D01*
X618104Y209040D01*
X619060Y209269D01*
X620030Y209423D01*
X621009Y209500D01*
X621991Y209500D01*
X622970Y209423D01*
X623941Y209269D01*
X624896Y209040D01*
X625830Y208736D01*
X626737Y208361D01*
X627612Y207915D01*
X628450Y207401D01*
X629245Y206824D01*
X629992Y206186D01*
X630686Y205492D01*
X631324Y204745D01*
X631901Y203950D01*
X632415Y203112D01*
X632861Y202237D01*
X633236Y201330D01*
X633540Y200396D01*
X633769Y199441D01*
X633923Y198470D01*
X634000Y197491D01*
X634000Y196509D01*
X343500Y196509D02*
X343423Y195530D01*
X343269Y194560D01*
X343040Y193604D01*
X342736Y192670D01*
X342361Y191763D01*
X341915Y190888D01*
X341401Y190050D01*
X340824Y189255D01*
X340186Y188508D01*
X339492Y187814D01*
X338745Y187176D01*
X337950Y186599D01*
X337112Y186085D01*
X336237Y185639D01*
X335330Y185264D01*
X334396Y184960D01*
X333441Y184731D01*
X332470Y184577D01*
X331491Y184500D01*
X330509Y184500D01*
X329530Y184577D01*
X328560Y184731D01*
X327604Y184960D01*
X326670Y185264D01*
X325763Y185639D01*
X324888Y186085D01*
X324050Y186599D01*
X323255Y187176D01*
X322508Y187814D01*
X321814Y188508D01*
X321176Y189255D01*
X320599Y190050D01*
X320085Y190888D01*
X319639Y191763D01*
X319264Y192670D01*
X318960Y193604D01*
X318731Y194560D01*
X318577Y195530D01*
X318500Y196509D01*
X318500Y197491D01*
X318577Y198470D01*
X318731Y199441D01*
X318960Y200396D01*
X319264Y201330D01*
X319639Y202237D01*
X320085Y203112D01*
X320599Y203950D01*
X321176Y204745D01*
X321814Y205492D01*
X322508Y206186D01*
X323255Y206824D01*
X324050Y207401D01*
X324888Y207915D01*
X325763Y208361D01*
X326670Y208736D01*
X327604Y209040D01*
X328560Y209269D01*
X329530Y209423D01*
X330509Y209500D01*
X331491Y209500D01*
X332470Y209423D01*
X333441Y209269D01*
X334396Y209040D01*
X335330Y208736D01*
X336237Y208361D01*
X337112Y207915D01*
X337950Y207401D01*
X338745Y206824D01*
X339492Y206186D01*
X340186Y205492D01*
X340824Y204745D01*
X341401Y203950D01*
X341915Y203112D01*
X342361Y202237D01*
X342736Y201330D01*
X343040Y200396D01*
X343269Y199441D01*
X343423Y198470D01*
X343500Y197491D01*
X343500Y196509D01*
X443500Y196509D02*
X443423Y195530D01*
X443269Y194560D01*
X443040Y193604D01*
X442736Y192670D01*
X442361Y191763D01*
X441915Y190888D01*
X441401Y190050D01*
X440824Y189255D01*
X440186Y188508D01*
X439492Y187814D01*
X438745Y187176D01*
X437950Y186599D01*
X437112Y186085D01*
X436237Y185639D01*
X435330Y185264D01*
X434396Y184960D01*
X433441Y184731D01*
X432470Y184577D01*
X431491Y184500D01*
X430509Y184500D01*
X429530Y184577D01*
X428560Y184731D01*
X427604Y184960D01*
X426670Y185264D01*
X425763Y185639D01*
X424888Y186085D01*
X424050Y186599D01*
X423255Y187176D01*
X422508Y187814D01*
X421814Y188508D01*
X421176Y189255D01*
X420599Y190050D01*
X420085Y190888D01*
X419639Y191763D01*
X419264Y192670D01*
X418960Y193604D01*
X418731Y194560D01*
X418577Y195530D01*
X418500Y196509D01*
X418500Y197491D01*
X418577Y198470D01*
X418731Y199441D01*
X418960Y200396D01*
X419264Y201330D01*
X419639Y202237D01*
X420085Y203112D01*
X420599Y203950D01*
X421176Y204745D01*
X421814Y205492D01*
X422508Y206186D01*
X423255Y206824D01*
X424050Y207401D01*
X424888Y207915D01*
X425763Y208361D01*
X426670Y208736D01*
X427604Y209040D01*
X428560Y209269D01*
X429530Y209423D01*
X430509Y209500D01*
X431491Y209500D01*
X432470Y209423D01*
X433441Y209269D01*
X434396Y209040D01*
X435330Y208736D01*
X436237Y208361D01*
X437112Y207915D01*
X437950Y207401D01*
X438745Y206824D01*
X439492Y206186D01*
X440186Y205492D01*
X440824Y204745D01*
X441401Y203950D01*
X441915Y203112D01*
X442361Y202237D01*
X442736Y201330D01*
X443040Y200396D01*
X443269Y199441D01*
X443423Y198470D01*
X443500Y197491D01*
X443500Y196509D01*
M02*
